<?xml version="1.0" encoding="UTF-8" standalone="no"?>
<!-- Created with Inkscape (http://www.inkscape.org/) -->

<svg
   width="210mm"
   height="297mm"
   viewBox="0 0 210 297"
   version="1.1"
   id="svg1"
   xml:space="preserve"
   sodipodi:docname="drawing2.svg"
   inkscape:version="1.3.2 (091e20e, 2023-11-25, custom)"
   xmlns:inkscape="http://www.inkscape.org/namespaces/inkscape"
   xmlns:sodipodi="http://sodipodi.sourceforge.net/DTD/sodipodi-0.dtd"
   xmlns="http://www.w3.org/2000/svg"
   xmlns:svg="http://www.w3.org/2000/svg"><sodipodi:namedview
     id="namedview1"
     pagecolor="#505050"
     bordercolor="#eeeeee"
     borderopacity="1"
     inkscape:showpageshadow="0"
     inkscape:pageopacity="0"
     inkscape:pagecheckerboard="0"
     inkscape:deskcolor="#505050"
     inkscape:document-units="mm"
     inkscape:zoom="1.6008628"
     inkscape:cx="685.25548"
     inkscape:cy="374.48556"
     inkscape:window-width="2726"
     inkscape:window-height="1266"
     inkscape:window-x="467"
     inkscape:window-y="172"
     inkscape:window-maximized="0"
     inkscape:current-layer="g1" /><defs
     id="defs1" /><g
     inkscape:label="Layer 1"
     inkscape:groupmode="layer"
     id="layer1"><g
       id="g1"
       transform="matrix(0.43121225,0,0,0.43343914,-5.7460979,36.438479)"><path
         fill="#000000"
         opacity="1"
         stroke="none"
         d="m 101.71622,170 c -0.005,-23.82718 -0.006,-47.15435 -0.0147,-70.481529 -0.005,-13.444351 4.01734,-17.48098 17.65752,-17.494713 28.99233,-0.02917 57.98468,-0.0091 86.97702,-0.0093 13.66306,-1.22e-4 27.32857,-0.133255 40.98699,0.118118 2.53827,0.04672 5.5646,-3.09287 5.71123,2.3305 0.20012,7.402245 -7.98073,9.429036 -14.71686,9.433781 -27.65928,0.01949 -47.0524,0.115837 -74.71167,0.117917 -13.82958,10e-4 -27.65914,-0.06957 -41.4887,-0.06516 -6.23969,0.002 -6.846,0.602508 -6.84992,6.864006 -0.0233,37.1568 -0.031,74.31361 -0.0138,111.47043 0.003,6.63908 0.74917,7.34356 7.57953,7.34485 65.4827,0.0122 130.96541,0.0137 196.44812,-1.9e-4 6.57416,-0.001 7.4246,-0.89076 7.4426,-7.59727 0.0331,-12.33002 0.18915,-24.66355 -0.0615,-36.98839 -0.0906,-4.45442 1.24609,-6.59943 5.85025,-6.39291 1.29852,0.0582 2.6311,-0.33963 3.9284,-0.6195 2.59629,-0.56009 3.77848,0.50469 3.77579,3.09824 -0.0173,16.66141 0.15686,33.32602 -0.13516,49.9825 -0.10376,5.91701 -4.86676,9.9438 -10.95523,10.20003 -4.32486,0.182 -8.66281,0.0524 -12.99491,0.0641 l -188.90878,0.0306 c -4.16541,-0.0286 -8.3314,0.002 -12.4965,-0.0467 -8.67608,-0.10177 -12.93256,-4.21909 -12.98003,-12.87403 -0.0877,-15.9947 -0.0276,-31.9902 -0.0297,-48.48538"
         id="path1"
         sodipodi:nodetypes="cssssssssscccssssssscccsc" /><path
         fill="#000000"
         opacity="1"
         stroke="none"
         d="m 147.93868,165.70492 c 0.82264,-0.051 1.18426,-0.0844 1.54644,-0.1098 4.35754,-0.30555 8.30723,-6.38509 11.06795,-4.62557 11.70905,7.46267 26.59533,7.96917 37.1481,17.58809 4.96834,4.52869 4.78576,10.76743 5.47371,16.61318 0.57059,4.84846 0.40338,9.78345 0.5715,14.67979 0.0444,1.29572 0.008,2.54208 -1.15034,3.44215 -3.60698,2.80368 -14.84946,0.0924 -16.75473,-4.02236 -0.12549,-0.27101 -0.57199,-0.3934 -1.4301,-0.94646 -2.26484,8.25025 -8.92684,5.67676 -14.45846,5.71841 -16.16178,0.12173 -32.32516,0.0277 -48.48791,0.0169 -10.23114,-0.007 -10.23114,-0.008 -16.02196,-5.43416 -2.77484,4.81129 -11.802563,7.36353 -17.089473,4.93113 -1.86206,-0.85667 -2.28609,-2.39186 -1.99681,-4.02933 1.17339,-6.64183 0.61146,-13.38318 1.32735,-20.07739 0.72367,-6.767 4.02434,-11.00981 9.36132,-14.3552 7.005723,-4.39143 15.150193,-6.02324 22.567703,-9.35475 6.88552,-3.09258 13.20093,-6.36371 20.40415,-0.53149 1.58664,1.28466 4.92767,0.40247 7.92156,0.49683 z"
         id="path3"
         style="stroke-width:1.09123" /><path
         fill="#000000"
         opacity="1"
         stroke="none"
         d="m 287.19555,47.985109 c 40.88844,-10.650692 78.05557,15.930858 84.90987,52.315531 8.87738,47.12399 -33.24969,88.65337 -80.19007,79.15124 -10.02136,-2.02862 -17.93682,-5.72585 -30.14855,-7.43693 -18.51444,-2.59419 -26.11992,-3.89156 -44.79503,-4.69237 -2.0828,-0.0893 -7.13592,-7.57292 -9.09373,-8.8194 -0.0775,-2.47536 3.50062,-0.39903 12.77666,-3.6236 6.38913,-2.22101 10.95964,-6.53507 13.52923,-8.93404 6.79308,-6.34201 9.33635,-8.84393 6.44144,-17.36185 -10.90749,-32.093942 12.26681,-71.563848 46.57018,-80.598581 m 9.98353,123.356291 c 28.77615,3.48676 58.00536,-14.39237 65.01472,-44.13984 8.03776,-34.111988 -13.40813,-66.42952 -48.01233,-71.798684 -27.36088,-4.245295 -54.0876,11.797156 -63.64119,37.793088 -3.9172,10.658846 -4.60759,21.085786 -1.36084,32.010486 4.05061,13.62949 1.1146,21.04868 -10.60002,29.06999 -2.16244,1.48062 -4.31189,2.98014 -7.25944,5.01879 2.37546,0.25806 5.06561,0.24912 6.38149,0.18129 17.19346,2.46896 28.3991,5.02487 48.83452,9.44582 3.18719,0.68951 6.43514,1.49285 10.64308,2.41912 z"
         id="path4"
         sodipodi:nodetypes="csssscsssccsssssccscc"
         style="stroke-width:1.17086" /><path
         fill="#000000"
         opacity="1"
         stroke="none"
         d="m 164.40852,143.01809 c -2.53312,5.32676 -5.21192,10.0084 -9.46581,13.67307 -6.7828,5.84322 -14.70984,6.38632 -21.18145,0.32525 -12.53353,-11.73848 -16.8535,-26.53772 -13.40258,-43.14807 2.26057,-10.88074 13.86407,-18.22864 25.34469,-17.358812 11.88564,0.9005 21.2169,9.433182 22.70448,20.700402 1.16881,8.85248 0.10225,17.35436 -3.99933,25.80816 z"
         id="path5"
         style="stroke-width:1.09123" /><path
         fill="#000000"
         opacity="1"
         stroke="none"
         d="m 313.13222,66.330204 c 5.73535,-4.587464 10.28134,-0.574855 14.83446,1.435284 4.01058,1.770629 2.58166,5.341405 1.99823,8.672527 -0.87537,4.99846 4.48486,9.636322 9.5363,8.568933 7.0185,-1.483039 13.96306,4.426863 13.78396,11.719268 -0.0734,2.987511 -2.41059,4.251074 -4.37206,5.825664 -4.98672,4.00312 -4.56983,10.4124 0.88206,13.83793 5.97535,3.75444 5.75663,3.67696 2.01065,14.14313 -1.80905,5.05466 -4.93606,5.10663 -9.19924,4.21115 -5.34647,-1.12305 -9.93133,4.02566 -8.68694,9.46859 1.55949,6.82108 -5.41703,14.41622 -12.5694,13.72767 -2.24685,-0.21628 -3.25583,-1.89638 -4.43916,-3.43122 -4.92999,-6.39433 -11.11374,-6.08161 -14.87455,0.92558 -1.79875,3.35138 -4.25336,4.35712 -7.7168,3.30555 -2.04921,-0.62227 -4.05325,-1.39017 -6.08818,-2.06081 -4.03119,-1.32831 -5.33938,-3.9625 -4.44724,-8.1408 1.39612,-6.53859 -3.66316,-11.67819 -9.78385,-9.67468 -5.07091,1.65984 -7.96162,0.56716 -10.12308,-4.40059 -3.97087,-9.12636 -4.14745,-9.23231 1.77346,-13.77543 4.89363,-3.75486 4.51364,-10.25088 -1.00033,-13.0388 -4.35183,-2.20034 -6.34558,-4.99782 -4.01055,-9.766442 2.09987,-4.288343 1.40458,-11.002363 9.87041,-9.187473 7.09713,1.521463 11.34851,-3.70918 9.30777,-10.833386 -1.3625,-4.756284 0.20284,-7.461432 4.60577,-9.07805 4.32258,-1.587115 8.4529,-5.737788 12.91381,0.06055 5.561,7.228237 11.48775,6.308238 15.79448,-2.514201 z"
         id="path6"
         style="stroke-width:1.17086" /><path
         style="fill:#000000;stroke-width:11.56539304;stroke-dasharray:none"
         d="m 222.55334,291.52376 c 85.64251,0 85.64251,0 85.64251,0"
         id="path2" /><path
         style="fill:#000000;stroke-width:1156.53930373;stroke-dasharray:none"
         d="m 257.0203,300.67534 c 12.55245,0.0715 12.55245,0.0715 12.55245,0.0715"
         id="path7" /><path
         style="fill:#000000;stroke-width:1156.54;stroke-dasharray:none"
         d="m 258.07432,298.22064 c 13.07947,0 24.05088,0 24.05088,0"
         id="path8" /><path
         style="fill:#000000;stroke-width:837.465;stroke-dasharray:none"
         id="path9"
         d="m 197.61717,113.60927 c 11.02301,-1.02373 22.062,-0.21635 33.08508,0.38158 11.15249,0.6914 5.71737,0.34909 16.30537,1.02537 l -2.35665,-3.74257 v 0 c -10.40612,-0.35253 -5.05307,-0.14367 -16.05904,-0.63638 -9.27178,-0.53252 -8.91628,-0.46647 -18.18148,-1.18094 -2.64298,-0.20382 -5.28644,-0.38614 -7.92822,-0.65344 -1.90694,-0.19296 -3.81079,-0.51245 -5.71723,-0.72729 z"
         sodipodi:nodetypes="ccccscsscc" /><path
         style="fill:#000000;stroke-width:864.145;stroke-dasharray:none"
         id="path9-2"
         d="m 197.91618,129.87587 c 11.73654,-1.02373 23.49009,-0.21635 35.22671,0.38158 11.8744,0.6914 6.08746,0.34909 17.36083,1.02537 l -2.5092,-3.74257 v 0 c -11.07972,-0.35253 -5.38016,-0.14367 -17.09856,-0.63638 -9.87195,-0.53252 -9.49343,-0.46647 -19.35838,-1.18094 -2.81406,-0.20382 -5.62863,-0.38614 -8.44142,-0.65344 -2.03038,-0.19296 -4.05746,-0.51245 -6.08731,-0.72729 z"
         sodipodi:nodetypes="ccccscsscc" /><path
         style="fill:#000000;stroke-width:864.145;stroke-dasharray:none"
         id="path9-2-6"
         d="m 197.96017,147.15124 c 11.73653,-1.02373 23.49009,-0.21635 35.22671,0.38159 11.8744,0.69139 6.08745,0.34908 17.36082,1.02537 l -2.50919,-3.74257 v 0 c -11.07973,-0.35253 -5.38016,-0.14368 -17.09856,-0.63638 -9.87195,-0.53252 -9.49343,-0.46648 -19.35838,-1.18095 -2.81407,-0.20381 -5.62863,-0.38613 -8.44142,-0.65344 -2.03039,-0.19296 -4.05746,-0.51245 -6.08731,-0.72729 z"
         sodipodi:nodetypes="ccccscsscc" /><path
         style="fill:#000000;stroke-width:666.399;stroke-dasharray:none"
         id="path9-2-6-6"
         d="m 200.52553,165.73784 c 6.97967,-1.02373 13.96947,-0.21635 20.9492,0.38159 7.06167,0.69139 3.62019,0.34908 10.32442,1.02537 l -1.4922,-3.74257 v 0 c -6.58908,-0.35253 -3.19957,-0.14368 -10.16846,-0.63638 -5.87082,-0.53252 -5.64571,-0.46648 -11.51236,-1.18095 -1.67352,-0.20381 -3.34733,-0.38613 -5.02009,-0.65344 -1.20746,-0.19296 -2.41296,-0.51245 -3.6201,-0.72729 z"
         sodipodi:nodetypes="ccccscsscc" /><path
         style="fill:#000000;stroke-width:1256.61;stroke-dasharray:none"
         id="path9-2-6-6-9"
         d="m 203.60224,187.6229 c 24.81787,-1.02373 49.67175,-0.21635 74.48983,0.38159 25.10944,0.69139 12.87244,0.34908 36.71092,1.02537 l -5.30587,-3.74257 v 0 c -23.42903,-0.35253 -11.37683,-0.14368 -36.15636,-0.63638 -20.87509,-0.53252 -20.07466,-0.46648 -40.93492,-1.18095 -5.9506,-0.20381 -11.90223,-0.38613 -17.85012,-0.65344 -4.29341,-0.19296 -8.57985,-0.51245 -12.87212,-0.72729 z"
         sodipodi:nodetypes="ccccscsscc" /><path
         style="fill:#000000;stroke-width:1256.61;stroke-dasharray:none"
         id="path9-2-6-6-9-5"
         d="m 205.1761,205.34447 c 24.81787,-1.02373 49.67175,-0.21635 74.48983,0.38159 25.10944,0.69139 12.87244,0.34908 36.71092,1.02537 l -5.30587,-3.74257 v 0 c -23.42903,-0.35253 -11.37683,-0.14368 -36.15636,-0.63638 -20.87509,-0.53252 -20.07466,-0.46648 -40.93492,-1.18095 -5.9506,-0.20381 -11.90223,-0.38613 -17.85012,-0.65344 -4.29341,-0.19296 -8.57985,-0.51245 -12.87212,-0.72729 z"
         sodipodi:nodetypes="ccccscsscc" /><path
         fill="#000000"
         opacity="1"
         stroke="none"
         d="m 80.224641,418.87172 c -0.0054,-23.82718 -0.0065,-47.15435 -0.0159,-70.48153 -0.0054,-13.44435 4.345956,-17.48098 19.101887,-17.49472 31.363872,-0.0292 62.727762,-0.009 94.091642,-0.009 14.78068,-1.2e-4 29.56402,-0.13325 44.33968,0.11812 2.7459,0.0467 6.01978,-3.09287 6.1784,2.3305 0.21649,7.40225 -8.63354,9.42904 -15.92068,9.43378 -29.92178,0.0195 -50.90124,0.11584 -80.823,0.11792 -14.96083,10e-4 -29.92163,-0.0696 -44.88243,-0.0652 -6.750089,0.002 -7.405995,0.60251 -7.410236,6.86401 -0.0252,37.1568 -0.03354,74.31361 -0.01493,111.47043 0.0032,6.63908 0.810451,7.34356 8.199526,7.34485 70.83911,0.0122 141.67823,0.0137 212.51736,-1.9e-4 7.11192,-0.001 8.03192,-0.89076 8.05139,-7.59727 0.0358,-12.33002 0.20463,-24.66355 -0.0665,-36.98839 -0.098,-4.45442 1.34802,-6.59943 6.3288,-6.39291 1.40473,0.0582 2.84632,-0.33963 4.24974,-0.6195 2.80866,-0.56009 4.08755,0.50469 4.08464,3.09824 -0.0187,16.66141 0.16969,33.32602 -0.14622,49.9825 -0.11224,5.91701 -5.26485,9.9438 -11.85135,10.20003 -4.67863,0.182 -9.37142,0.0524 -14.05788,0.0641 l -204.36131,0.0306 c -4.50613,-0.0286 -9.012896,0.002 -13.518696,-0.0467 -9.385774,-0.10177 -13.990431,-4.21909 -14.041784,-12.87403 -0.09487,-15.9947 -0.02986,-31.9902 -0.03213,-48.48538"
         id="path1-3"
         sodipodi:nodetypes="cssssssssscccssssssscccsc"
         style="stroke-width:1.0401" /><path
         fill="#000000"
         opacity="1"
         stroke="none"
         d="m 149.48236,417.13811 c 7.99744,-0.4958 21.71894,0.94085 24.06501,1.46608 13.5665,3.03719 17.5839,5.67733 28.13667,15.29625 4.96834,4.52869 4.78576,10.76743 5.47371,16.61318 0.57059,4.84846 0.40338,9.78345 0.5715,14.67979 0.0444,1.29572 0.008,2.54208 -1.15034,3.44215 -3.60698,2.80368 -14.84946,0.0924 -16.75473,-4.02236 -0.12549,-0.27101 -0.57199,-0.3934 -1.4301,-0.94646 -2.26484,8.25025 -8.92684,5.67676 -14.45846,5.71841 -16.16178,0.12173 -32.32516,0.0277 -48.48791,0.0169 -10.23114,-0.007 -10.23114,-0.008 -16.02196,-5.43416 -2.77484,4.81129 -11.80256,7.36353 -17.08947,4.93113 -1.86206,-0.85667 -2.28609,-2.39186 -1.99681,-4.02933 1.17339,-6.64183 0.61146,-13.38318 1.32735,-20.07739 0.72367,-6.767 4.02434,-11.00981 9.36132,-14.3552 7.00572,-4.39143 9.07871,-7.30579 16.87627,-9.62438 12.52157,-3.72326 19.63399,-4.42376 31.57795,-3.67461 z"
         id="path3-9"
         style="stroke-width:1.09123"
         sodipodi:nodetypes="csssscscsccsssssc" /><path
         fill="#000000"
         opacity="1"
         stroke="none"
         d="m 285.21597,296.85682 c 40.88844,-10.65069 78.05557,15.93086 84.90987,52.31554 8.87738,47.12399 -33.24969,88.65337 -80.19007,79.15124 -10.02136,-2.02862 -17.93682,-5.72585 -30.14855,-7.43693 -18.51444,-2.59419 -26.11992,-3.89156 -44.79503,-4.69237 -2.0828,-0.0893 -7.13592,-7.57292 -9.09373,-8.8194 -0.0775,-2.47536 3.50062,-0.39903 12.77666,-3.6236 6.38913,-2.22101 10.95964,-6.53507 13.52923,-8.93404 6.79308,-6.34201 9.33635,-8.84393 6.44144,-17.36185 -10.90749,-32.09395 12.26681,-71.56385 46.57018,-80.59859 m 9.98353,123.3563 c 28.77615,3.48676 58.00536,-14.39237 65.01472,-44.13984 8.03776,-34.11199 -13.40813,-66.42952 -48.01233,-71.79869 -27.36088,-4.24529 -54.0876,11.79716 -63.64119,37.79309 -3.9172,10.65885 -4.60759,21.08579 -1.36084,32.01049 4.05061,13.62949 1.1146,21.04868 -10.60002,29.06999 -2.16244,1.48062 -4.31189,2.98014 -7.25944,5.01879 2.37546,0.25806 5.06561,0.24912 6.38149,0.18129 17.19346,2.46896 28.3991,5.02487 48.83452,9.44582 3.18719,0.68951 6.43514,1.49285 10.64308,2.41912 z"
         id="path4-5"
         sodipodi:nodetypes="csssscsssccsssssccscc"
         style="stroke-width:1.17086" /><path
         fill="#000000"
         opacity="1"
         stroke="none"
         d="m 169.47548,394.58609 c -2.53312,5.32676 -5.21192,10.0084 -9.46581,13.67307 -6.7828,5.84322 -14.70984,6.38632 -21.18145,0.32525 -12.53353,-11.73848 -16.8535,-26.53772 -13.40258,-43.14807 2.26057,-10.88074 13.86407,-18.22864 25.34469,-17.35881 11.88564,0.9005 21.2169,9.43318 22.70448,20.7004 1.16881,8.85248 0.10225,17.35436 -3.99933,25.80816 z"
         id="path5-8"
         style="stroke-width:1.09123" /><path
         fill="#000000"
         opacity="1"
         stroke="none"
         d="m 311.15264,315.20192 c 5.73535,-4.58746 10.28134,-0.57486 14.83446,1.43528 4.01058,1.77063 2.58166,5.34141 1.99823,8.67253 -0.87537,4.99846 4.48486,9.63632 9.5363,8.56893 7.0185,-1.48304 13.96306,4.42687 13.78396,11.71927 -0.0734,2.98751 -2.41059,4.25108 -4.37206,5.82567 -4.98672,4.00312 -4.56983,10.4124 0.88206,13.83793 5.97535,3.75444 5.75663,3.67696 2.01065,14.14313 -1.80905,5.05466 -4.93606,5.10663 -9.19924,4.21115 -5.34647,-1.12305 -9.93133,4.02566 -8.68694,9.46859 1.55949,6.82108 -5.41703,14.41622 -12.5694,13.72767 -2.24685,-0.21628 -3.25583,-1.89638 -4.43916,-3.43122 -4.92999,-6.39433 -11.11374,-6.08161 -14.87455,0.92558 -1.79875,3.35138 -4.25336,4.35712 -7.7168,3.30555 -2.04921,-0.62227 -4.05325,-1.39017 -6.08818,-2.06081 -4.03119,-1.32831 -5.33938,-3.9625 -4.44724,-8.1408 1.39612,-6.53859 -3.66316,-11.67819 -9.78385,-9.67468 -5.07091,1.65984 -7.96162,0.56716 -10.12308,-4.40059 -3.97087,-9.12636 -4.14745,-9.23231 1.77346,-13.77543 4.89363,-3.75486 4.51364,-10.25088 -1.00033,-13.0388 -4.35183,-2.20034 -6.34558,-4.99782 -4.01055,-9.76645 2.09987,-4.28834 1.40458,-11.00236 9.87041,-9.18747 7.09713,1.52146 11.34851,-3.70918 9.30777,-10.83339 -1.3625,-4.75628 0.20284,-7.46143 4.60577,-9.07804 4.32258,-1.58712 8.4529,-5.73779 12.91381,0.0606 5.561,7.22823 11.48775,6.30823 15.79448,-2.51421 z"
         id="path6-5"
         style="stroke-width:1.17086" /><path
         style="fill:#000000;stroke-width:11.5654;stroke-dasharray:none"
         d="m 220.57376,540.39548 c 85.64251,0 85.64251,0 85.64251,0"
         id="path2-1" /><path
         style="fill:#000000;stroke-width:1156.54;stroke-dasharray:none"
         d="m 255.04072,549.54706 c 12.55245,0.0715 12.55245,0.0715 12.55245,0.0715"
         id="path7-9" /><path
         style="fill:#000000;stroke-width:1156.54;stroke-dasharray:none"
         d="m 256.09474,547.09236 c 13.07947,0 24.05088,0 24.05088,0"
         id="path8-1" /><path
         style="fill:#000000;stroke-width:837.465;stroke-dasharray:none"
         id="path9-25"
         d="m 195.63759,362.48099 c 11.02301,-1.02373 22.062,-0.21635 33.08508,0.38158 11.15249,0.6914 5.71737,0.34909 16.30537,1.02537 l -2.35665,-3.74257 v 0 c -10.40612,-0.35253 -5.05307,-0.14367 -16.05904,-0.63638 -9.27178,-0.53252 -8.91628,-0.46647 -18.18148,-1.18094 -2.64298,-0.20382 -5.28644,-0.38614 -7.92822,-0.65344 -1.90694,-0.19296 -3.81079,-0.51245 -5.71723,-0.72729 z"
         sodipodi:nodetypes="ccccscsscc" /><path
         style="fill:#000000;stroke-width:864.145;stroke-dasharray:none"
         id="path9-2-7"
         d="m 195.9366,378.74759 c 11.73654,-1.02373 23.49009,-0.21635 35.22671,0.38158 11.8744,0.6914 6.08746,0.34909 17.36083,1.02537 l -2.5092,-3.74257 v 0 c -11.07972,-0.35253 -5.38016,-0.14367 -17.09856,-0.63638 -9.87195,-0.53252 -9.49343,-0.46647 -19.35838,-1.18094 -2.81406,-0.20382 -5.62863,-0.38614 -8.44142,-0.65344 -2.03038,-0.19296 -4.05746,-0.51245 -6.08731,-0.72729 z"
         sodipodi:nodetypes="ccccscsscc" /><path
         style="fill:#000000;stroke-width:864.145;stroke-dasharray:none"
         id="path9-2-6-4"
         d="m 195.98059,396.02296 c 11.73653,-1.02373 23.49009,-0.21635 35.22671,0.38159 11.8744,0.69139 6.08745,0.34908 17.36082,1.02537 l -2.50919,-3.74257 v 0 c -11.07973,-0.35253 -5.38016,-0.14368 -17.09856,-0.63638 -9.87195,-0.53252 -9.49343,-0.46648 -19.35838,-1.18095 -2.81407,-0.20381 -5.62863,-0.38613 -8.44142,-0.65344 -2.03039,-0.19296 -4.05746,-0.51245 -6.08731,-0.72729 z"
         sodipodi:nodetypes="ccccscsscc" /><path
         style="fill:#000000;stroke-width:666.399;stroke-dasharray:none"
         id="path9-2-6-6-3"
         d="m 198.54595,415.83042 c 6.97967,-1.02373 13.96947,-0.21635 20.9492,0.38159 7.06167,0.69139 3.62019,0.34908 10.32442,1.02537 l -1.4922,-3.74257 v 0 c -6.58908,-0.35253 -3.19957,-0.14368 -10.16846,-0.63638 -5.87082,-0.53252 -5.64571,-0.46648 -11.51236,-1.18095 -1.67352,-0.20381 -3.34733,-0.38613 -5.02009,-0.65344 -1.20746,-0.19296 -2.41296,-0.51245 -3.6201,-0.72729 z"
         sodipodi:nodetypes="ccccscsscc" /><path
         style="fill:#000000;stroke-width:1256.61;stroke-dasharray:none"
         id="path9-2-6-6-9-9"
         d="m 201.62266,436.49462 c 24.81787,-1.02373 49.67175,-0.21635 74.48983,0.38159 25.10944,0.69139 12.87244,0.34908 36.71092,1.02537 l -5.30587,-3.74257 v 0 c -23.42903,-0.35253 -11.37683,-0.14368 -36.15636,-0.63638 -20.87509,-0.53252 -20.07466,-0.46648 -40.93492,-1.18095 -5.9506,-0.20381 -11.90223,-0.38613 -17.85012,-0.65344 -4.29341,-0.19296 -8.57985,-0.51245 -12.87212,-0.72729 z"
         sodipodi:nodetypes="ccccscsscc" /><path
         style="fill:#000000;stroke-width:1256.61;stroke-dasharray:none"
         id="path9-2-6-6-9-5-2"
         d="m 203.19652,454.21619 c 24.81787,-1.02373 49.67175,-0.21635 74.48983,0.38159 25.10944,0.69139 12.87244,0.34908 36.71092,1.02537 l -5.30587,-3.74257 v 0 c -23.42903,-0.35253 -11.37683,-0.14368 -36.15636,-0.63638 -20.87509,-0.53252 -20.07466,-0.46648 -40.93492,-1.18095 -5.9506,-0.20381 -11.90223,-0.38613 -17.85012,-0.65344 -4.29341,-0.19296 -8.57985,-0.51245 -12.87212,-0.72729 z"
         sodipodi:nodetypes="ccccscsscc" /><path
         fill="#000000"
         opacity="1"
         stroke="none"
         d="m 316.30223,523.74732 c 40.88844,-10.65069 78.05557,15.93086 84.90987,52.31553 8.87738,47.12399 -33.24969,88.65337 -80.19007,79.15124 -10.02136,-2.02862 -17.93682,-5.72585 -30.14855,-7.43693 -18.51444,-2.59419 -26.11992,-3.89156 -44.79503,-4.69237 -2.0828,-0.0893 -7.13592,-7.57292 -9.09373,-8.8194 -0.0775,-2.47536 3.50062,-0.39903 12.77666,-3.6236 6.38913,-2.22101 10.95964,-6.53507 13.52923,-8.93404 6.79308,-6.34201 9.33635,-8.84393 6.44144,-17.36185 -10.90749,-32.09394 12.26681,-71.56385 46.57018,-80.59858 m 9.98353,123.35629 c 28.77615,3.48676 58.00536,-14.39237 65.01472,-44.13984 8.03776,-34.11199 -13.40813,-66.42952 -48.01233,-71.79868 -27.36088,-4.2453 -54.0876,11.79715 -63.64119,37.79308 -3.9172,10.65885 -4.60759,21.08579 -1.36084,32.01049 4.05061,13.62949 1.1146,21.04868 -10.60002,29.06999 -2.16244,1.48062 -4.31189,2.98014 -7.25944,5.01879 2.37546,0.25806 5.06561,0.24912 6.38149,0.18129 17.19346,2.46896 28.3991,5.02487 48.83452,9.44582 3.18719,0.68951 6.43514,1.49285 10.64308,2.41912 z"
         id="path4-8"
         sodipodi:nodetypes="csssscsssccsssssccscc"
         style="stroke-width:1.17086" /><path
         fill="#000000"
         opacity="1"
         stroke="none"
         d="m 342.2389,542.09241 c 5.73535,-4.58746 10.28134,-0.57485 14.83446,1.43529 4.01058,1.77063 2.58166,5.3414 1.99823,8.67252 -0.87537,4.99846 4.48486,9.63633 9.5363,8.56894 7.0185,-1.48304 13.96306,4.42686 13.78396,11.71927 -0.0734,2.98751 -2.41059,4.25107 -4.37206,5.82566 -4.98672,4.00312 -4.56983,10.4124 0.88206,13.83793 5.97535,3.75444 5.75663,3.67696 2.01065,14.14313 -1.80905,5.05466 -4.93606,5.10663 -9.19924,4.21115 -5.34647,-1.12305 -9.93133,4.02566 -8.68694,9.46859 1.55949,6.82108 -5.41703,14.41622 -12.5694,13.72767 -2.24685,-0.21628 -3.25583,-1.89638 -4.43916,-3.43122 -4.92999,-6.39433 -11.11374,-6.08161 -14.87455,0.92558 -1.79875,3.35138 -4.25336,4.35712 -7.7168,3.30555 -2.04921,-0.62227 -4.05325,-1.39017 -6.08818,-2.06081 -4.03119,-1.32831 -5.33938,-3.9625 -4.44724,-8.1408 1.39612,-6.53859 -3.66316,-11.67819 -9.78385,-9.67468 -5.07091,1.65984 -7.96162,0.56716 -10.12308,-4.40059 -3.97087,-9.12636 -4.14745,-9.23231 1.77346,-13.77543 4.89363,-3.75486 4.51364,-10.25088 -1.00033,-13.0388 -4.35183,-2.20034 -6.34558,-4.99782 -4.01055,-9.76644 2.09987,-4.28834 1.40458,-11.00236 9.87041,-9.18748 7.09713,1.52147 11.34851,-3.70918 9.30777,-10.83338 -1.3625,-4.75629 0.20284,-7.46143 4.60577,-9.07805 4.32258,-1.58712 8.4529,-5.73779 12.91381,0.0606 5.561,7.22824 11.48775,6.30824 15.79448,-2.5142 z"
         id="path6-2"
         style="stroke-width:1.17086" /><path
         style="fill:#000000;stroke-width:462.035;stroke-dasharray:none"
         id="path13"
         d="m 146.91748,227.7395 c 0.15755,2.6792 0.80757,5.33301 1.26047,7.9966 0.16768,2.21626 -0.15568,4.10664 -1.7529,6.11741 -1.06252,1.33761 -1.41673,1.49367 -2.9064,2.6872 -3.94109,2.91349 -8.87317,5.2048 -13.82436,7.40966 0,0 3.64146,1.43192 3.64146,1.43192 v 0 c 2.73154,-1.29 1.44812,-0.67334 4.38439,-2.10834 3.36407,-1.64407 6.72725,-3.31723 9.47628,-5.37255 0.56944,-0.44985 1.1914,-0.8759 1.70831,-1.34955 0.82193,-0.75314 1.82338,-1.99117 2.28793,-2.85531 0.82923,-1.5425 0.89588,-3.16655 0.83653,-4.77471 -0.46922,-2.61896 -1.09989,-5.24254 -1.00609,-7.88382 z" /><path
         style="fill:#000000;stroke-width:462.035;stroke-dasharray:none"
         id="path14"
         d="m 147.68082,243.36897 c -0.52322,0.9867 -0.5928,2.0174 -0.50328,3.04608 0.0622,0.19983 0.0988,0.4034 0.18671,0.59947 0.35515,0.79223 1.11302,1.76842 1.89502,2.43228 0.22348,0.18972 0.48473,0.36115 0.72711,0.54172 0.98635,0.68359 2.04904,1.33709 3.254,1.87325 1.70048,0.75667 3.6098,1.31397 5.43016,1.95421 1.03251,0.21191 0.52172,0.12038 1.53095,0.27769 0,0 -3.63135,-1.73135 -3.63135,-1.73135 v 0 c -0.96744,-0.17784 -0.47952,-0.073 -1.46144,-0.31862 1.05064,0.38618 2.0996,0.77413 3.15193,1.15854 0.26874,0.0982 -0.54105,-0.19302 -0.80112,-0.2998 -1.23324,-0.50633 -2.31221,-1.14638 -3.30575,-1.82197 -0.24887,-0.16843 -0.51757,-0.32634 -0.7466,-0.50528 -0.7975,-0.62308 -1.5577,-1.57407 -1.94823,-2.33215 -0.0945,-0.18345 -0.14157,-0.37503 -0.21235,-0.56255 -0.13219,-0.99565 -0.0877,-2.00811 0.52686,-2.94635 z" /><path
         style="fill:#000000;stroke-width:462.035;stroke-dasharray:none"
         id="path13-3"
         d="m 293.19385,223.85018 c 0.15755,2.6792 0.80757,5.33301 1.26047,7.9966 0.16768,2.21626 -0.15568,4.10664 -1.7529,6.11741 -1.06252,1.33761 -1.41673,1.49367 -2.9064,2.6872 -3.94109,2.91349 -8.87317,5.2048 -13.82436,7.40966 0,0 3.64146,1.43192 3.64146,1.43192 v 0 c 2.73154,-1.29 1.44812,-0.67334 4.38439,-2.10834 3.36407,-1.64407 6.72725,-3.31723 9.47628,-5.37255 0.56944,-0.44985 1.1914,-0.8759 1.70831,-1.34955 0.82193,-0.75314 1.82338,-1.99117 2.28793,-2.85531 0.82923,-1.5425 0.89588,-3.16655 0.83653,-4.77471 -0.46922,-2.61896 -1.09989,-5.24254 -1.00609,-7.88382 z" /><path
         style="fill:#000000;stroke-width:462.035;stroke-dasharray:none"
         id="path14-3"
         d="m 293.95719,239.47965 c -0.52322,0.9867 -0.5928,2.0174 -0.50328,3.04608 0.0622,0.19983 0.0988,0.4034 0.18671,0.59947 0.35515,0.79223 1.11302,1.76842 1.89502,2.43228 0.22348,0.18972 0.48473,0.36115 0.72711,0.54172 0.98635,0.68359 2.04904,1.33709 3.254,1.87325 1.70048,0.75667 3.6098,1.31397 5.43016,1.95421 1.03251,0.21191 0.52172,0.12038 1.53095,0.27769 0,0 -3.63135,-1.73135 -3.63135,-1.73135 v 0 c -0.96744,-0.17784 -0.47952,-0.073 -1.46144,-0.31862 1.05064,0.38618 2.0996,0.77413 3.15193,1.15854 0.26874,0.0982 -0.54105,-0.19302 -0.80112,-0.2998 -1.23324,-0.50633 -2.31221,-1.14638 -3.30575,-1.82197 -0.24887,-0.16843 -0.51757,-0.32634 -0.7466,-0.50528 -0.7975,-0.62308 -1.5577,-1.57407 -1.94823,-2.33215 -0.0945,-0.18345 -0.14157,-0.37503 -0.21235,-0.56255 -0.13219,-0.99565 -0.0877,-2.00811 0.52686,-2.94635 z" /><path
         fill="#000000"
         opacity="1"
         stroke="none"
         d="m 465.48459,165.67298 c -0.004,-23.82718 -0.005,-47.15435 -0.0128,-70.481528 -0.004,-13.444351 3.48806,-17.48098 15.33117,-17.494713 25.17266,-0.02917 50.34532,-0.0091 75.51798,-0.0093 11.86298,-1.22e-4 23.72809,-0.133255 35.58704,0.118118 2.20386,0.04672 4.83148,-3.09287 4.95879,2.3305 0.17376,7.402245 -6.92928,9.429036 -12.77794,9.433781 -24.01523,0.01949 -40.85335,0.115837 -64.86857,0.117917 -12.00756,0.001 -24.0151,-0.06957 -36.02265,-0.06516 -5.41762,0.002 -5.94405,0.602508 -5.94746,6.864006 -0.0202,37.156799 -0.0269,74.313609 -0.012,111.470429 0.003,6.63908 0.65047,7.34356 6.58095,7.34485 56.85549,0.0122 113.71099,0.0137 170.56649,-1.9e-4 5.70803,-0.001 6.44642,-0.89076 6.46205,-7.59727 0.0287,-12.33002 0.16423,-24.66355 -0.0534,-36.98839 -0.0787,-4.45442 1.08192,-6.59943 5.07949,-6.39291 1.12745,0.0582 2.28446,-0.33963 3.41085,-0.6195 2.25423,-0.56009 3.28067,0.50469 3.27833,3.09824 -0.015,16.66141 0.1362,33.32602 -0.11735,49.9825 -0.0901,5.91701 -4.22557,9.9438 -9.5119,10.20003 -3.75507,0.182 -7.5215,0.0524 -11.28286,0.0641 l -164.02044,0.0306 c -3.61663,-0.0286 -7.23376,0.002 -10.85011,-0.0467 -7.53303,-0.10177 -11.22873,-4.21909 -11.26994,-12.87403 -0.0762,-15.9947 -0.024,-31.9902 -0.0258,-48.48538"
         id="path1-5"
         sodipodi:nodetypes="cssssssssscccssssssscccsc"
         style="stroke-width:0.9318" /><path
         fill="#000000"
         opacity="1"
         stroke="none"
         d="m 514.77569,162.90315 c 0.82264,-0.051 1.18426,-0.0844 1.54644,-0.1098 4.35754,-0.30555 8.30723,-6.38509 11.06795,-4.62557 11.70905,7.46267 26.59533,7.96917 37.1481,17.58809 4.96834,4.52869 4.78576,10.76743 5.47371,16.61318 0.57059,4.84846 0.40338,9.78345 0.5715,14.67979 0.0444,1.29572 0.008,2.54208 -1.15034,3.44215 -3.60698,2.80368 -14.84946,0.0924 -16.75473,-4.02236 -0.12549,-0.27101 -0.57199,-0.3934 -1.4301,-0.94646 -2.26484,8.25025 -8.92684,5.67676 -14.45846,5.71841 -16.16178,0.12173 -32.32516,0.0277 -48.48791,0.0169 -10.23114,-0.007 -10.23114,-0.008 -16.02196,-5.43416 -2.77484,4.81129 -11.80256,7.36353 -17.08947,4.93113 -1.86206,-0.85667 -2.28609,-2.39186 -1.99681,-4.02933 1.17339,-6.64183 0.61146,-13.38318 1.32735,-20.07739 0.72367,-6.767 4.02434,-11.00981 9.36132,-14.3552 7.00572,-4.39143 15.15019,-6.02324 22.5677,-9.35475 6.88552,-3.09258 13.20093,-6.36371 20.40415,-0.53149 1.58664,1.28466 4.92767,0.40247 7.92156,0.49683 z"
         id="path3-2"
         style="stroke-width:1.09123" /><path
         fill="#000000"
         opacity="1"
         stroke="none"
         d="m 619.53727,43.65809 c 40.88844,-10.650692 78.05557,15.930858 84.90987,52.315531 8.87738,47.123989 -33.24969,88.653369 -80.19007,79.151239 -10.02136,-2.02862 -17.93682,-5.72585 -30.14855,-7.43693 -18.51444,-2.59419 -26.11992,-3.89156 -44.79503,-4.69237 -2.0828,-0.0893 -7.13592,-7.57292 -9.09373,-8.8194 -0.0775,-2.47536 3.50062,-0.39903 12.77666,-3.6236 6.38913,-2.22101 10.95964,-6.53507 13.52923,-8.93404 6.79308,-6.34201 9.33635,-8.84393 6.44144,-17.36185 C 562.0596,92.162729 585.2339,52.692823 619.53727,43.65809 m 9.98353,123.35629 c 28.77615,3.48676 58.00536,-14.39237 65.01472,-44.13984 8.03776,-34.111987 -13.40813,-66.429519 -48.01233,-71.798683 -27.36088,-4.245295 -54.0876,11.797156 -63.64119,37.793088 -3.9172,10.658846 -4.60759,21.085785 -1.36084,32.010485 4.05061,13.62949 1.1146,21.04868 -10.60002,29.06999 -2.16244,1.48062 -4.31189,2.98014 -7.25944,5.01879 2.37546,0.25806 5.06561,0.24912 6.38149,0.18129 17.19346,2.46896 28.3991,5.02487 48.83452,9.44582 3.18719,0.68951 6.43514,1.49285 10.64308,2.41912 z"
         id="path4-7"
         sodipodi:nodetypes="csssscsssccsssssccscc"
         style="stroke-width:1.17086" /><path
         fill="#000000"
         opacity="1"
         stroke="none"
         d="m 531.24553,140.21632 c -2.53312,5.32676 -5.21192,10.0084 -9.46581,13.67307 -6.7828,5.84322 -14.70984,6.38632 -21.18145,0.32525 -12.53353,-11.73848 -16.8535,-26.53772 -13.40258,-43.14807 2.26057,-10.88074 13.86407,-18.228642 25.34469,-17.358814 11.88564,0.9005 21.2169,9.433184 22.70448,20.700404 1.16881,8.85248 0.10225,17.35436 -3.99933,25.80816 z"
         id="path5-9"
         style="stroke-width:1.09123" /><path
         fill="#000000"
         opacity="1"
         stroke="none"
         d="m 645.47394,62.003185 c 5.73535,-4.587464 10.28134,-0.574855 14.83446,1.435284 4.01058,1.770629 2.58166,5.341405 1.99823,8.672527 -0.87537,4.99846 4.48486,9.636322 9.5363,8.568933 7.0185,-1.483039 13.96306,4.426863 13.78396,11.719268 -0.0734,2.987511 -2.41059,4.251074 -4.37206,5.825664 -4.98672,4.003119 -4.56983,10.412399 0.88206,13.837929 5.97535,3.75444 5.75663,3.67696 2.01065,14.14313 -1.80905,5.05466 -4.93606,5.10663 -9.19924,4.21115 -5.34647,-1.12305 -9.93133,4.02566 -8.68694,9.46859 1.55949,6.82108 -5.41703,14.41622 -12.5694,13.72767 -2.24685,-0.21628 -3.25583,-1.89638 -4.43916,-3.43122 -4.92999,-6.39433 -11.11374,-6.08161 -14.87455,0.92558 -1.79875,3.35138 -4.25336,4.35712 -7.7168,3.30555 -2.04921,-0.62227 -4.05325,-1.39017 -6.08818,-2.06081 -4.03119,-1.32831 -5.33938,-3.9625 -4.44724,-8.1408 1.39612,-6.53859 -3.66316,-11.67819 -9.78385,-9.67468 -5.07091,1.65984 -7.96162,0.56716 -10.12308,-4.40059 -3.97087,-9.12636 -4.14745,-9.23231 1.77346,-13.77543 4.89363,-3.75486 4.51364,-10.25088 -1.00033,-13.0388 -4.35183,-2.20034 -6.34558,-4.997819 -4.01055,-9.766441 2.09987,-4.288343 1.40458,-11.002363 9.87041,-9.187473 7.09713,1.521463 11.34851,-3.70918 9.30777,-10.833386 -1.3625,-4.756284 0.20284,-7.461432 4.60577,-9.07805 4.32258,-1.587115 8.4529,-5.737788 12.91381,0.06055 5.561,7.228237 11.48775,6.308238 15.79448,-2.514201 z"
         id="path6-1"
         style="stroke-width:1.17086" /><path
         style="fill:#000000;stroke-width:11.5654;stroke-dasharray:none"
         d="m 554.89506,287.19674 c 85.64251,0 85.64251,0 85.64251,0"
         id="path2-7" /><path
         style="fill:#000000;stroke-width:1156.54;stroke-dasharray:none"
         d="m 589.36202,296.34832 c 12.55245,0.0715 12.55245,0.0715 12.55245,0.0715"
         id="path7-1" /><path
         style="fill:#000000;stroke-width:1156.54;stroke-dasharray:none"
         d="m 590.41604,293.89362 c 13.07947,0 24.05088,0 24.05088,0"
         id="path8-2" /><ellipse
         style="fill:#000000;stroke-width:845.992;stroke-dasharray:none"
         id="path15-4"
         cx="568.62097"
         cy="242.60162"
         rx="9.5323858"
         ry="9.4834099" /><ellipse
         style="fill:#000000;stroke-width:579.271;stroke-dasharray:none"
         id="path15-4-8-6"
         cx="532.03058"
         cy="284.45712"
         rx="6.5270591"
         ry="6.4935246" /><path
         style="fill:#000000;stroke-width:1156.54;stroke-dasharray:none"
         d="m 520.02292,298.76878 c 83.93854,0 124.56632,-14.87116 124.56632,-14.87116"
         id="path15" /><path
         id="path24"
         style="fill:#000000;stroke-width:1041.73;stroke-dasharray:none"
         d="m 555.80052,230.47093 a 11.690585,11.724945 0 0 1 4.58522,0.95857 11.690585,11.724945 0 0 0 -6.7171,10.61097 11.690585,11.724945 0 0 0 7.09445,10.76301 11.690585,11.724945 0 0 1 -4.96257,1.11813 11.690585,11.724945 0 0 1 -10.7132,-7.03661 c -6.00431,0.0736 -24.88227,0.22347 -31.76867,1.78988 -4.89187,1.11275 -12.57759,5.39014 -18.19683,5.39014 -6.45652,0 -11.69043,-5.24931 -11.69043,-11.7248 0,-6.4755 5.23391,-11.7248 11.69043,-11.7248 8.85892,0 12.13117,6.25828 18.78706,7.8992 5.88942,1.45196 22.8657,0.64206 30.70434,0.33964 a 11.690585,11.724945 0 0 1 11.1873,-8.38333 z" /><path
         id="ellipse23"
         style="fill:#000000;stroke-width:1045.95;stroke-dasharray:none"
         d="m 659.46006,230.70385 a 11.785495,11.724945 0 0 0 -5.25105,1.25291 c 3.58222,2.01149 6.0043,5.82678 6.0043,10.21095 0,4.58086 -2.64586,8.53822 -6.49527,10.46757 a 11.785495,11.724945 0 0 0 5.74202,1.51924 11.785495,11.724945 0 0 0 11.78535,-11.7248 11.785495,11.724945 0 0 0 -11.78535,-11.72587 z" /><path
         id="path25"
         style="fill:#000000;stroke-width:1045.95;stroke-dasharray:none"
         d="m 583.44419,230.64336 a 11.785495,11.724945 0 0 0 -4.62244,0.95857 11.785495,11.724945 0 0 1 6.77163,10.61097 11.785495,11.724945 0 0 1 -7.15205,10.76301 11.785495,11.724945 0 0 0 5.00286,1.11813 11.785495,11.724945 0 0 0 10.80017,-7.03661 c 6.05306,0.0736 25.08428,0.22347 32.02658,1.78988 4.9316,1.11275 12.67971,5.39014 18.34457,5.39014 6.50894,0 11.78535,-5.24931 11.78535,-11.7248 0,-6.4755 -5.27641,-11.7248 -11.78535,-11.7248 -8.93084,0 -12.22965,6.25828 -18.93959,7.8992 -5.93723,1.45196 -23.05133,0.64206 -30.9536,0.33964 a 11.785495,11.724945 0 0 0 -11.27813,-8.38333 z" /><path
         id="path26"
         style="fill:#000000;stroke-width:1126.02;stroke-dasharray:none"
         d="m 479.7665,255.05205 a 12.68763,12.622445 0 0 0 5.65301,-1.34881 c -3.85644,-2.16546 -6.46392,-6.27281 -6.46392,-10.99256 0,-4.93151 2.84839,-9.19179 6.99246,-11.26883 a 12.68763,12.622445 0 0 0 -6.18155,-1.63553 12.68763,12.622445 0 0 0 -12.68747,12.62228 12.68763,12.622445 0 0 0 12.68747,12.62345 z" /></g></g></svg>
