<?xml version="1.0" encoding="UTF-8" standalone="no"?>
<!-- Created with Inkscape (http://www.inkscape.org/) -->

<svg
   width="210mm"
   height="297mm"
   viewBox="0 0 210 297"
   version="1.1"
   id="svg1"
   xml:space="preserve"
   sodipodi:docname="drawing2.svg"
   inkscape:version="1.3.2 (091e20e, 2023-11-25, custom)"
   xmlns:inkscape="http://www.inkscape.org/namespaces/inkscape"
   xmlns:sodipodi="http://sodipodi.sourceforge.net/DTD/sodipodi-0.dtd"
   xmlns="http://www.w3.org/2000/svg"
   xmlns:svg="http://www.w3.org/2000/svg"><sodipodi:namedview
     id="namedview1"
     pagecolor="#505050"
     bordercolor="#eeeeee"
     borderopacity="1"
     inkscape:showpageshadow="0"
     inkscape:pageopacity="0"
     inkscape:pagecheckerboard="0"
     inkscape:deskcolor="#505050"
     inkscape:document-units="mm"
     inkscape:zoom="1.4142136"
     inkscape:cx="3353.8074"
     inkscape:cy="930.19897"
     inkscape:window-width="3840"
     inkscape:window-height="2054"
     inkscape:window-x="-11"
     inkscape:window-y="-11"
     inkscape:window-maximized="1"
     inkscape:current-layer="layer1" /><defs
     id="defs1" /><g
     inkscape:label="Layer 1"
     inkscape:groupmode="layer"
     id="layer1"><path
       fill="#000000"
       opacity="1"
       stroke="none"
       d="m 38.115182,110.12313 c -0.0022,-10.32763 -0.0026,-20.438538 -0.0063,-30.549451 -0.0022,-5.827307 1.732327,-7.57694 7.614139,-7.582893 12.501848,-0.01264 25.003705,-0.0039 37.505557,-0.004 5.891679,-5.3e-5 11.784414,-0.05776 17.674092,0.0512 1.09453,0.02025 2.39952,-1.340571 2.46275,1.01013 0.0863,3.208423 -3.441386,4.086913 -6.346088,4.08897 -11.92702,0.0084 -20.289571,0.05021 -32.216587,0.05111 -5.963485,4.33e-4 -11.92696,-0.03016 -17.890436,-0.02824 -2.690631,8.67e-4 -2.952079,0.26115 -2.953769,2.975129 -0.01005,16.105211 -0.01337,32.210425 -0.006,48.315655 0.0013,2.87763 0.323051,3.18298 3.268386,3.18354 28.236942,0.005 56.473894,0.006 84.710834,-8e-5 2.83486,-4.4e-4 3.20158,-0.38609 3.20934,-3.29296 0.0143,-5.34431 0.0816,-10.69014 -0.0265,-16.03221 -0.0391,-1.93072 0.53733,-2.86045 2.5227,-2.77094 0.55994,0.0252 1.13456,-0.14721 1.69398,-0.26851 1.11955,-0.24277 1.62932,0.21875 1.62816,1.34289 -0.007,7.22171 0.0676,14.44481 -0.0583,21.66438 -0.0447,2.56466 -2.09861,4.31003 -4.72403,4.42109 -1.86493,0.0789 -3.73551,0.0227 -5.60356,0.0278 l -81.459783,0.0133 c -1.796176,-0.0124 -3.592602,8.7e-4 -5.388644,-0.0202 -3.741232,-0.0441 -5.576678,-1.82872 -5.597148,-5.58011 -0.03782,-6.93272 -0.0119,-13.8658 -0.01281,-21.01546"
       id="path1"
       sodipodi:nodetypes="cssssssssscccssssssscccsc"
       style="stroke-width:0.432324" /><path
       fill="#000000"
       opacity="1"
       stroke="none"
       d="m 58.046873,108.26148 c 0.354733,-0.0221 0.510668,-0.0366 0.666844,-0.0476 1.879025,-0.13244 3.582179,-2.76755 4.772636,-2.00491 5.049085,3.23462 11.468232,3.45415 16.018715,7.62337 2.14241,1.96291 2.063679,4.66702 2.360331,7.2008 0.246046,2.10151 0.173943,4.24053 0.246438,6.3628 0.01915,0.56161 0.0035,1.10183 -0.496041,1.49196 -1.555374,1.21522 -6.403269,0.0401 -7.224844,-1.74345 -0.05411,-0.11747 -0.24665,-0.17051 -0.616677,-0.41023 -0.976627,3.57598 -3.849363,2.46053 -6.234665,2.47858 -6.969158,0.0528 -13.939005,0.012 -20.908581,0.007 -4.411793,-0.003 -4.411793,-0.003 -6.908865,-2.35538 -1.196545,2.0854 -5.08941,3.19164 -7.36919,2.13734 -0.802944,-0.37131 -0.98579,-1.03672 -0.861049,-1.74647 0.50598,-2.87883 0.263669,-5.80079 0.572369,-8.70232 0.312056,-2.93309 1.735345,-4.77209 4.036716,-6.22211 3.020954,-1.90342 6.532949,-2.61071 9.73147,-4.05471 2.969121,-1.34045 5.692403,-2.75828 8.798519,-0.23037 0.684179,0.55682 2.124872,0.17444 3.415874,0.21534 z"
       id="path3"
       style="stroke-width:0.471765" /><path
       fill="#000000"
       opacity="1"
       stroke="none"
       d="m 118.09614,57.237103 c 17.6316,-4.616426 33.65852,6.905058 36.61418,22.675599 3.82803,20.425378 -14.33768,38.425838 -34.57894,34.307248 -4.32134,-0.87929 -7.73458,-2.48181 -13.00043,-3.22346 -7.98365,-1.12442 -11.263227,-1.68675 -19.316163,-2.03386 -0.898129,-0.0387 -3.077096,-3.2824 -3.921328,-3.82267 -0.03342,-1.07292 1.509511,-0.17295 5.509453,-1.57061 2.755071,-0.96267 4.725931,-2.83255 5.833969,-3.872362 2.92926,-2.748875 4.025949,-3.833305 2.777628,-7.525305 -4.703443,-13.910771 5.289601,-31.018573 20.081631,-34.93458 m 4.30502,53.467447 c 12.40863,1.5113 25.01262,-6.23822 28.03515,-19.131936 3.46598,-14.785471 -5.78175,-28.793154 -20.70351,-31.12036 -11.79835,-1.840077 -23.32324,5.113349 -27.44286,16.381003 -1.68914,4.619962 -1.98685,9.139405 -0.58681,13.874598 1.74667,5.907554 0.48063,9.123322 -4.570859,12.600075 -0.932471,0.64176 -1.85934,1.29171 -3.13036,2.17534 1.024328,0.11185 2.184353,0.10797 2.751777,0.0786 7.414032,1.07015 12.246042,2.17798 21.058042,4.09419 1.37436,0.29886 2.77491,0.64706 4.58943,1.04854 z"
       id="path4"
       sodipodi:nodetypes="csssscsssccsssssccscc"
       style="stroke-width:0.506191" /><path
       fill="#000000"
       opacity="1"
       stroke="none"
       d="m 65.14887,98.428117 c -1.092312,2.308823 -2.247444,4.338033 -4.081773,5.926443 -2.924827,2.53268 -6.343064,2.76808 -9.133701,0.14098 -5.404612,-5.08792 -7.267436,-11.50249 -5.779357,-18.702066 0.974786,-4.716138 5.978357,-7.901006 10.928941,-7.523988 5.125234,0.390312 9.148987,4.08871 9.79045,8.972364 0.504005,3.837012 0.04409,7.522059 -1.72456,11.186267 z"
       id="path5"
       style="stroke-width:0.471765" /><path
       fill="#000000"
       opacity="1"
       stroke="none"
       d="m 129.28035,65.188586 c 2.47315,-1.988387 4.43344,-0.249165 6.3968,0.622108 1.72941,0.76746 1.11325,2.315174 0.86166,3.759012 -0.37747,2.166529 1.93393,4.17676 4.11217,3.714111 3.02647,-0.642807 6.02105,1.918776 5.94382,5.07959 -0.0317,1.294904 -1.03948,1.842582 -1.88529,2.525071 -2.15034,1.735109 -1.97057,4.513141 0.38035,5.9979 2.57665,1.627321 2.48233,1.593739 0.86702,6.130186 -0.78008,2.190888 -2.12849,2.213414 -3.96682,1.825277 -2.30547,-0.486773 -4.28251,1.744879 -3.74592,4.104058 0.67247,2.956521 -2.33589,6.248551 -5.42008,5.950111 -0.96887,-0.0937 -1.40395,-0.82197 -1.91422,-1.48723 -2.12587,-2.77155 -4.79238,-2.636 -6.41409,0.40119 -0.77564,1.45262 -1.8341,1.88854 -3.32757,1.43275 -0.88365,-0.26972 -1.74782,-0.60255 -2.6253,-0.89323 -1.7383,-0.57575 -2.30241,-1.71751 -1.91771,-3.52855 0.60203,-2.834077 -1.5796,-5.061781 -4.21891,-4.193381 -2.18664,0.719439 -3.43315,0.245829 -4.3652,-1.907388 -1.71229,-3.955722 -1.78843,-4.001645 0.76474,-5.970811 2.11019,-1.627503 1.94634,-4.443132 -0.43136,-5.651526 -1.87656,-0.953713 -2.73629,-2.166251 -1.72939,-4.233158 0.90549,-1.858736 0.60567,-4.768855 4.25624,-3.982211 3.06037,0.659462 4.89361,-1.607703 4.01362,-4.695613 -0.58752,-2.06156 0.0875,-3.234077 1.98607,-3.934782 1.86395,-0.687918 3.64499,-2.486982 5.56859,0.02624 2.39797,3.133001 4.95366,2.734238 6.81077,-1.089753 z"
       id="path6"
       style="stroke-width:0.506191" /><path
       style="fill:#000000;stroke-width:5;stroke-dasharray:none"
       d="m 90.221629,162.79629 c 36.930101,0 36.930101,0 36.930101,0"
       id="path2" /><path
       style="fill:#000000;stroke-width:500;stroke-dasharray:none"
       d="m 105.0842,166.76294 c 5.41277,0.031 5.41277,0.031 5.41277,0.031"
       id="path7" /><path
       style="fill:#000000;stroke-width:500;stroke-dasharray:none"
       d="m 105.53871,165.69898 c 5.64003,0 10.37103,0 10.37103,0"
       id="path8" /><path
       style="fill:#000000;stroke-width:362.056;stroke-dasharray:none"
       id="path9"
       d="m 79.468847,85.681183 c 4.753257,-0.443724 9.513404,-0.09377 14.266691,0.165392 4.809091,0.29968 2.4654,0.151309 7.031072,0.444435 l -1.016213,-1.622176 v 0 c -4.487246,-0.1528 -2.178945,-0.06227 -6.924854,-0.275832 -3.998106,-0.230815 -3.84481,-0.202186 -7.840077,-0.511865 -1.139686,-0.08834 -2.279578,-0.167369 -3.418746,-0.283227 -0.822296,-0.08364 -1.643259,-0.222116 -2.46534,-0.315236 z"
       sodipodi:nodetypes="ccccscsscc" /><path
       style="fill:#000000;stroke-width:373.591;stroke-dasharray:none"
       id="path9-2"
       d="m 79.597783,92.731764 c 5.06094,-0.443724 10.129215,-0.09377 15.190189,0.165392 5.120387,0.29968 2.624988,0.151309 7.486198,0.444436 l -1.08199,-1.622177 v 0 c -4.777714,-0.1528 -2.319994,-0.06227 -7.373111,-0.275832 -4.256906,-0.230815 -4.093684,-0.202186 -8.347571,-0.511865 -1.213457,-0.08834 -2.427134,-0.167369 -3.640044,-0.283227 -0.875525,-0.08364 -1.749626,-0.222116 -2.624922,-0.315236 z"
       sodipodi:nodetypes="ccccscsscc" /><path
       style="fill:#000000;stroke-width:373.591;stroke-dasharray:none"
       id="path9-2-6"
       d="m 79.616752,100.21959 c 5.060936,-0.443729 10.129215,-0.0938 15.190189,0.16539 5.120387,0.29968 2.624983,0.15131 7.486199,0.44444 l -1.08199,-1.622179 v 0 c -4.777719,-0.1528 -2.319995,-0.06228 -7.373112,-0.275832 -4.256906,-0.230815 -4.093684,-0.202191 -8.347571,-0.51187 -1.213461,-0.08834 -2.427134,-0.167364 -3.640044,-0.283226 -0.875529,-0.08364 -1.749626,-0.222116 -2.624922,-0.315236 z"
       sodipodi:nodetypes="ccccscsscc" /><path
       style="fill:#000000;stroke-width:288.1;stroke-dasharray:none"
       id="path9-2-6-6"
       d="m 80.722967,108.27575 c 3.009719,-0.44373 6.023807,-0.0938 9.033552,0.16539 3.045078,0.29968 1.56107,0.15131 4.452016,0.44444 L 93.56508,107.2634 v 0 c -2.841292,-0.1528 -1.379694,-0.0623 -4.384764,-0.27583 -2.53157,-0.23082 -2.4345,-0.20219 -4.964271,-0.51187 -0.721642,-0.0883 -1.44341,-0.16736 -2.164724,-0.28323 -0.520672,-0.0836 -1.040498,-0.22211 -1.561032,-0.31523 z"
       sodipodi:nodetypes="ccccscsscc" /><path
       style="fill:#000000;stroke-width:543.263;stroke-dasharray:none"
       id="path9-2-6-6-9"
       d="m 82.049682,117.76159 c 10.70177,-0.44373 21.419068,-0.0938 32.120928,0.16539 10.8275,0.29968 5.55075,0.15131 15.8302,0.44444 l -2.28796,-1.62218 v 0 c -10.10288,-0.1528 -4.90583,-0.0623 -15.59106,-0.27583 -9.0016,-0.23081 -8.65644,-0.20219 -17.651643,-0.51187 -2.565971,-0.0883 -5.132387,-0.16736 -7.69719,-0.28323 -1.851371,-0.0836 -3.699737,-0.22211 -5.550616,-0.31523 z"
       sodipodi:nodetypes="ccccscsscc" /><path
       style="fill:#000000;stroke-width:543.263;stroke-dasharray:none"
       id="path9-2-6-6-9-5"
       d="m 82.72835,125.44281 c 10.701769,-0.44373 21.41907,-0.0938 32.12093,0.1654 10.8275,0.29967 5.55075,0.1513 15.8302,0.44443 l -2.28796,-1.62218 v 0 c -10.10289,-0.1528 -4.90583,-0.0623 -15.59107,-0.27583 -9.00159,-0.23081 -8.65644,-0.20219 -17.651635,-0.51187 -2.565972,-0.0883 -5.132387,-0.16736 -7.69719,-0.28322 -1.851371,-0.0836 -3.699737,-0.22212 -5.550616,-0.31524 z"
       sodipodi:nodetypes="ccccscsscc" /><path
       fill="#000000"
       opacity="1"
       stroke="none"
       d="m 28.84775,217.99388 c -0.0023,-10.32764 -0.0028,-20.43854 -0.0069,-30.54946 -0.0023,-5.8273 1.874029,-7.57694 8.236967,-7.58289 13.524486,-0.0127 27.04898,-0.004 40.573469,-0.004 6.37361,-6e-5 12.748368,-0.0578 19.119813,0.0512 1.184066,0.0203 2.595803,-1.34057 2.664202,1.01013 0.09335,3.20843 -3.722888,4.08692 -6.865192,4.08897 -12.902638,0.008 -21.949238,0.0502 -34.851868,0.0511 -6.451293,4.4e-4 -12.902573,-0.0302 -19.353854,-0.0283 -2.910721,8.7e-4 -3.193555,0.26116 -3.195384,2.97513 -0.01087,16.10522 -0.01446,32.21043 -0.0064,48.31565 0.0014,2.87764 0.349476,3.18299 3.535736,3.18355 30.546692,0.005 61.093388,0.006 91.640081,-8e-5 3.06675,-4.4e-4 3.46347,-0.3861 3.47186,-3.29296 0.0154,-5.34431 0.0882,-10.69015 -0.0287,-16.03221 -0.0423,-1.93072 0.58128,-2.86046 2.72905,-2.77094 0.60574,0.0252 1.22737,-0.14721 1.83254,-0.26852 1.21113,-0.24276 1.7626,0.21875 1.76135,1.3429 -0.008,7.22171 0.0732,14.4448 -0.0631,21.66437 -0.0484,2.56467 -2.27027,4.31003 -5.11045,4.42109 -2.01748,0.0789 -4.04107,0.0227 -6.06193,0.0278 l -88.123096,0.0133 c -1.943099,-0.0124 -3.886471,8.7e-4 -5.829428,-0.0202 -4.04726,-0.0441 -6.032845,-1.82872 -6.054989,-5.58011 -0.04091,-6.93273 -0.01288,-13.8658 -0.01385,-21.01546"
       id="path1-3"
       sodipodi:nodetypes="cssssssssscccssssssscccsc"
       style="stroke-width:0.44966" /><path
       fill="#000000"
       opacity="1"
       stroke="none"
       d="m 58.712527,217.24246 c 3.448594,-0.2149 9.365473,0.4078 10.377127,0.63546 5.850041,1.31644 7.582393,2.46078 12.132877,6.62999 2.142409,1.96291 2.063678,4.66703 2.360331,7.20081 0.246045,2.10151 0.173942,4.24053 0.246437,6.36279 0.01915,0.56162 0.0035,1.10184 -0.49604,1.49196 -1.555374,1.21523 -6.403269,0.0401 -7.224845,-1.74345 -0.05411,-0.11746 -0.246649,-0.17051 -0.616677,-0.41023 -0.976627,3.57598 -3.849363,2.46053 -6.234665,2.47858 -6.969157,0.0528 -13.939005,0.012 -20.908581,0.007 -4.411793,-0.003 -4.411793,-0.003 -6.908865,-2.35538 -1.196545,2.0854 -5.089408,3.19164 -7.369189,2.13735 -0.802943,-0.37132 -0.98579,-1.03673 -0.861049,-1.74647 0.50598,-2.87883 0.263669,-5.8008 0.57237,-8.70233 0.312055,-2.93308 1.735345,-4.77208 4.036716,-6.2221 3.020952,-1.90342 3.914851,-3.16662 7.277254,-4.17159 5.399454,-1.6138 8.466417,-1.91743 13.616799,-1.59272 z"
       id="path3-9"
       style="stroke-width:0.471765"
       sodipodi:nodetypes="csssscscsccsssssc" /><path
       fill="#000000"
       opacity="1"
       stroke="none"
       d="m 117.24252,165.10784 c 17.6316,-4.61642 33.65852,6.90506 36.61418,22.67561 3.82803,20.42538 -14.33768,38.42584 -34.57894,34.30724 -4.32134,-0.87928 -7.73458,-2.48181 -13.00043,-3.22345 -7.98365,-1.12443 -11.263226,-1.68676 -19.316162,-2.03386 -0.898129,-0.0387 -3.077096,-3.2824 -3.921328,-3.82267 -0.03342,-1.07292 1.509511,-0.17296 5.509453,-1.57061 2.755071,-0.96268 4.725931,-2.83256 5.833969,-3.87237 2.92926,-2.74887 4.025949,-3.8333 2.777628,-7.5253 -4.703443,-13.91078 5.2896,-31.01858 20.08163,-34.93459 m 4.30502,53.46745 c 12.40863,1.5113 25.01262,-6.23821 28.03515,-19.13193 3.46598,-14.78547 -5.78175,-28.79316 -20.70351,-31.12036 -11.79835,-1.84008 -23.32323,5.11335 -27.44286,16.381 -1.689144,4.61996 -1.986848,9.13941 -0.58681,13.8746 1.74667,5.90755 0.48063,9.12332 -4.570859,12.60007 -0.93247,0.64176 -1.859339,1.29171 -3.130359,2.17534 1.024327,0.11185 2.184353,0.10798 2.751777,0.0786 7.414031,1.07014 12.246041,2.17797 21.058041,4.09419 1.37436,0.29886 2.77491,0.64706 4.58943,1.04854 z"
       id="path4-5"
       sodipodi:nodetypes="csssscsssccsssssccscc"
       style="stroke-width:0.506191" /><path
       fill="#000000"
       opacity="1"
       stroke="none"
       d="m 67.333805,207.46753 c -1.092312,2.30883 -2.247444,4.33804 -4.081773,5.92645 -2.924827,2.53268 -6.343063,2.76808 -9.133701,0.14097 -5.404611,-5.08791 -7.267435,-11.50248 -5.779356,-18.70206 0.974785,-4.71614 5.978356,-7.901 10.92894,-7.52399 5.125234,0.39032 9.148988,4.08871 9.79045,8.97237 0.504005,3.83701 0.04409,7.52206 -1.72456,11.18626 z"
       id="path5-8"
       style="stroke-width:0.471765" /><path
       fill="#000000"
       opacity="1"
       stroke="none"
       d="m 128.42673,173.05933 c 2.47316,-1.98839 4.43344,-0.24917 6.3968,0.6221 1.72941,0.76747 1.11325,2.31518 0.86166,3.75902 -0.37747,2.16653 1.93393,4.17676 4.11217,3.71411 3.02647,-0.64281 6.02105,1.91878 5.94382,5.07959 -0.0317,1.2949 -1.03948,1.84258 -1.88529,2.52507 -2.15033,1.73511 -1.97057,4.51314 0.38036,5.9979 2.57664,1.62732 2.48232,1.59374 0.86701,6.13019 -0.78008,2.19089 -2.12849,2.21341 -3.96682,1.82528 -2.30547,-0.48678 -4.28251,1.74487 -3.74592,4.10405 0.67247,2.95653 -2.33589,6.24856 -5.42008,5.95011 -0.96887,-0.0937 -1.40395,-0.82196 -1.91422,-1.48722 -2.12587,-2.77156 -4.79238,-2.63601 -6.41409,0.40118 -0.77564,1.45262 -1.8341,1.88855 -3.32757,1.43276 -0.88365,-0.26972 -1.74782,-0.60256 -2.6253,-0.89324 -1.7383,-0.57574 -2.30241,-1.7175 -1.91771,-3.52854 0.60203,-2.83408 -1.5796,-5.06179 -4.21891,-4.19339 -2.18664,0.71944 -3.43315,0.24583 -4.3652,-1.90738 -1.71229,-3.95573 -1.78843,-4.00165 0.76474,-5.97082 2.11019,-1.6275 1.94634,-4.44313 -0.43136,-5.65152 -1.87656,-0.95372 -2.73629,-2.16625 -1.72939,-4.23316 0.90549,-1.85874 0.60567,-4.76886 4.25624,-3.98221 3.06037,0.65946 4.89361,-1.60771 4.01362,-4.69562 -0.58752,-2.06156 0.0875,-3.23407 1.98607,-3.93478 1.86395,-0.68792 3.64499,-2.48698 5.56859,0.0263 2.39797,3.133 4.95366,2.73423 6.81077,-1.08976 z"
       id="path6-5"
       style="stroke-width:0.506191" /><path
       style="fill:#000000;stroke-width:5;stroke-dasharray:none"
       d="m 89.368009,270.66703 c 36.930101,0 36.930101,0 36.930101,0"
       id="path2-1" /><path
       style="fill:#000000;stroke-width:500;stroke-dasharray:none"
       d="m 104.23058,274.63368 c 5.41278,0.031 5.41278,0.031 5.41278,0.031"
       id="path7-9" /><path
       style="fill:#000000;stroke-width:500;stroke-dasharray:none"
       d="m 104.68509,273.56972 c 5.64003,0 10.37104,0 10.37104,0"
       id="path8-1" /><path
       style="fill:#000000;stroke-width:362.056;stroke-dasharray:none"
       id="path9-25"
       d="m 78.615227,193.55193 c 4.753257,-0.44373 9.513405,-0.0938 14.266692,0.16539 4.809091,0.29968 2.4654,0.15131 7.031076,0.44443 l -1.016217,-1.62217 v 0 c -4.487246,-0.1528 -2.178945,-0.0623 -6.924855,-0.27583 -3.998105,-0.23082 -3.844809,-0.20219 -7.840076,-0.51187 -1.139686,-0.0883 -2.279578,-0.16737 -3.418746,-0.28323 -0.822296,-0.0836 -1.643259,-0.22211 -2.46534,-0.31523 z"
       sodipodi:nodetypes="ccccscsscc" /><path
       style="fill:#000000;stroke-width:373.591;stroke-dasharray:none"
       id="path9-2-7"
       d="m 78.744164,200.60251 c 5.06094,-0.44373 10.129215,-0.0938 15.190189,0.16539 5.120387,0.29968 2.624987,0.15131 7.486207,0.44444 l -1.082,-1.62218 v 0 c -4.777713,-0.1528 -2.319993,-0.0623 -7.373111,-0.27583 -4.256905,-0.23082 -4.093683,-0.20219 -8.34757,-0.51187 -1.213457,-0.0883 -2.427134,-0.16737 -3.640044,-0.28322 -0.875525,-0.0836 -1.749626,-0.22212 -2.624923,-0.31524 z"
       sodipodi:nodetypes="ccccscsscc" /><path
       style="fill:#000000;stroke-width:373.591;stroke-dasharray:none"
       id="path9-2-6-4"
       d="m 78.763133,208.09033 c 5.060936,-0.44372 10.129215,-0.0938 15.190189,0.1654 5.120387,0.29967 2.624983,0.1513 7.486198,0.44443 l -1.08199,-1.62217 v 0 c -4.777718,-0.1528 -2.319994,-0.0623 -7.373112,-0.27584 -4.256905,-0.23081 -4.093683,-0.20219 -8.34757,-0.51187 -1.213462,-0.0883 -2.427134,-0.16736 -3.640044,-0.28322 -0.875529,-0.0836 -1.749626,-0.22212 -2.624923,-0.31524 z"
       sodipodi:nodetypes="ccccscsscc" /><path
       style="fill:#000000;stroke-width:288.1;stroke-dasharray:none"
       id="path9-2-6-6-3"
       d="m 79.869348,216.67566 c 3.009719,-0.44373 6.023807,-0.0938 9.033552,0.16539 3.045078,0.29968 1.56107,0.15131 4.452016,0.44444 l -0.643455,-1.62218 v 0 c -2.841292,-0.1528 -1.379694,-0.0623 -4.384764,-0.27583 -2.53157,-0.23081 -2.4345,-0.20219 -4.964271,-0.51187 -0.721642,-0.0883 -1.44341,-0.16736 -2.164724,-0.28322 -0.520672,-0.0836 -1.040498,-0.22212 -1.561032,-0.31524 z"
       sodipodi:nodetypes="ccccscsscc" /><path
       style="fill:#000000;stroke-width:543.263;stroke-dasharray:none"
       id="path9-2-6-6-9-9"
       d="m 81.196063,225.63233 c 10.70177,-0.44372 21.419067,-0.0938 32.120927,0.1654 10.8275,0.29967 5.55075,0.1513 15.8302,0.44443 l -2.28796,-1.62217 v 0 c -10.10288,-0.1528 -4.90583,-0.0623 -15.59106,-0.27584 -9.0016,-0.23081 -8.65644,-0.20219 -17.651642,-0.51187 -2.565971,-0.0883 -5.132387,-0.16736 -7.69719,-0.28322 -1.851371,-0.0836 -3.699737,-0.22212 -5.550616,-0.31524 z"
       sodipodi:nodetypes="ccccscsscc" /><path
       style="fill:#000000;stroke-width:543.263;stroke-dasharray:none"
       id="path9-2-6-6-9-5-2"
       d="m 81.874731,233.31355 c 10.701769,-0.44372 21.419069,-0.0938 32.120929,0.1654 10.8275,0.29968 5.55075,0.1513 15.8302,0.44444 l -2.28796,-1.62218 v 0 c -10.10288,-0.1528 -4.90583,-0.0623 -15.59107,-0.27583 -9.00159,-0.23082 -8.65643,-0.20219 -17.651634,-0.51187 -2.565972,-0.0883 -5.132388,-0.16737 -7.697191,-0.28323 -1.851371,-0.0836 -3.699736,-0.22212 -5.550615,-0.31524 z"
       sodipodi:nodetypes="ccccscsscc" /><path
       fill="#000000"
       opacity="1"
       stroke="none"
       d="m 130.6473,263.45107 c 17.63159,-4.61643 33.65852,6.90506 36.61417,22.6756 3.82804,20.42538 -14.33767,38.42584 -34.57894,34.30724 -4.32133,-0.87928 -7.73457,-2.48181 -13.00042,-3.22346 -7.98365,-1.12442 -11.26323,-1.68675 -19.31617,-2.03385 -0.898125,-0.0387 -3.077092,-3.2824 -3.921324,-3.82268 -0.03342,-1.07291 1.509511,-0.17295 5.509454,-1.57061 2.75507,-0.96267 4.72593,-2.83255 5.83397,-3.87236 2.92926,-2.74887 4.02595,-3.8333 2.77763,-7.5253 -4.70345,-13.91077 5.2896,-31.01858 20.08163,-34.93458 m 4.30502,53.46744 c 12.40863,1.5113 25.01262,-6.23822 28.03514,-19.13193 3.46598,-14.78547 -5.78175,-28.79316 -20.7035,-31.12036 -11.79835,-1.84008 -23.32324,5.11335 -27.44286,16.381 -1.68915,4.61996 -1.98685,9.13941 -0.58681,13.8746 1.74667,5.90755 0.48063,9.12332 -4.57086,12.60007 -0.93247,0.64176 -1.85934,1.29171 -3.13036,2.17534 1.02433,0.11185 2.18435,0.10798 2.75177,0.0786 7.41404,1.07014 12.24604,2.17797 21.05805,4.09419 1.37435,0.29886 2.77491,0.64706 4.58942,1.04854 z"
       id="path4-8"
       sodipodi:nodetypes="csssscsssccsssssccscc"
       style="stroke-width:0.506191" /><path
       fill="#000000"
       opacity="1"
       stroke="none"
       d="m 141.83151,271.40255 c 2.47315,-1.98839 4.43344,-0.24917 6.3968,0.62211 1.72941,0.76746 1.11324,2.31517 0.86166,3.75901 -0.37747,2.16653 1.93393,4.17676 4.11217,3.71411 3.02646,-0.64281 6.02104,1.91878 5.94381,5.07959 -0.0317,1.29491 -1.03947,1.84258 -1.88528,2.52507 -2.15034,1.73511 -1.97057,4.51314 0.38035,5.9979 2.57665,1.62732 2.48233,1.59374 0.86702,6.13019 -0.78009,2.19088 -2.12849,2.21341 -3.96683,1.82527 -2.30546,-0.48677 -4.28251,1.74488 -3.74591,4.10406 0.67247,2.95653 -2.33589,6.24856 -5.42008,5.95011 -0.96887,-0.0937 -1.40395,-0.82196 -1.91422,-1.48722 -2.12587,-2.77156 -4.79238,-2.63601 -6.41409,0.40118 -0.77564,1.45262 -1.8341,1.88855 -3.32758,1.43275 -0.88364,-0.26971 -1.74781,-0.60255 -2.6253,-0.89323 -1.73829,-0.57574 -2.3024,-1.7175 -1.9177,-3.52854 0.60202,-2.83408 -1.5796,-5.06179 -4.21892,-4.19339 -2.18663,0.71944 -3.43314,0.24583 -4.36519,-1.90739 -1.71229,-3.95572 -1.78843,-4.00164 0.76474,-5.97081 2.11019,-1.6275 1.94633,-4.44313 -0.43136,-5.65152 -1.87656,-0.95372 -2.73629,-2.16625 -1.7294,-4.23316 0.90549,-1.85873 0.60567,-4.76885 4.25624,-3.98221 3.06037,0.65946 4.89362,-1.60771 4.01363,-4.69561 -0.58753,-2.06157 0.0875,-3.23408 1.98606,-3.93479 1.86395,-0.68792 3.645,-2.48698 5.5686,0.0263 2.39797,3.133 4.95365,2.73424 6.81077,-1.08975 z"
       id="path6-2"
       style="stroke-width:0.506191" /><path
       style="fill:#000000;stroke-width:199.749;stroke-dasharray:none"
       id="path13"
       d="m 57.606519,135.14969 c 0.06794,1.16127 0.348234,2.31154 0.54353,3.46604 0.07231,0.96062 -0.06713,1.77998 -0.755872,2.65153 -0.458171,0.57977 -0.610911,0.64741 -1.253275,1.16473 -1.699446,1.26282 -3.82622,2.25597 -5.961233,3.21164 0,0 1.570242,0.62065 1.570242,0.62065 v 0 c 1.177873,-0.55914 0.624447,-0.29185 1.890603,-0.91384 1.450628,-0.7126 2.900872,-1.43781 4.086288,-2.32867 0.245549,-0.19498 0.513746,-0.37965 0.736644,-0.58495 0.354426,-0.32644 0.786264,-0.86305 0.986583,-1.2376 0.357574,-0.66858 0.386315,-1.37251 0.360722,-2.06955 -0.202333,-1.13516 -0.474286,-2.27232 -0.433838,-3.41715 z" /><path
       style="fill:#000000;stroke-width:199.749;stroke-dasharray:none"
       id="path14"
       d="m 57.935681,141.92412 c -0.225619,0.42767 -0.255623,0.87442 -0.217021,1.32029 0.02682,0.0866 0.0426,0.17485 0.08051,0.25983 0.153145,0.34338 0.479948,0.7665 0.817156,1.05425 0.09637,0.0822 0.209021,0.15653 0.313538,0.2348 0.425327,0.29629 0.883572,0.57955 1.403165,0.81194 0.733268,0.32797 1.55659,0.56952 2.341552,0.84703 0.445231,0.0918 0.224972,0.0522 0.660164,0.12036 0,0 -1.565883,-0.75043 -1.565883,-0.75043 v 0 c -0.417172,-0.0771 -0.206774,-0.0317 -0.63019,-0.13811 0.453048,0.16739 0.905373,0.33554 1.35915,0.50216 0.115884,0.0426 -0.233307,-0.0837 -0.345452,-0.12994 -0.531789,-0.21947 -0.997054,-0.49689 -1.42548,-0.78972 -0.107316,-0.073 -0.223183,-0.14145 -0.321943,-0.21901 -0.343892,-0.27006 -0.6717,-0.68226 -0.840101,-1.01084 -0.04075,-0.0795 -0.06105,-0.16255 -0.09157,-0.24383 -0.057,-0.43156 -0.03782,-0.8704 0.227189,-1.27707 z" /><path
       style="fill:#000000;stroke-width:199.749;stroke-dasharray:none"
       id="path13-3"
       d="m 120.68268,133.46391 c 0.0679,1.16127 0.34824,2.31153 0.54353,3.46604 0.0723,0.96061 -0.0671,1.77998 -0.75587,2.65152 -0.45817,0.57978 -0.61091,0.64742 -1.25328,1.16474 -1.69944,1.26282 -3.82621,2.25596 -5.96123,3.21164 0,0 1.57024,0.62065 1.57024,0.62065 v 0 c 1.17788,-0.55914 0.62445,-0.29185 1.89061,-0.91384 1.45062,-0.7126 2.90087,-1.43782 4.08628,-2.32867 0.24555,-0.19499 0.51375,-0.37965 0.73665,-0.58495 0.35442,-0.32644 0.78626,-0.86305 0.98658,-1.2376 0.35758,-0.66858 0.38632,-1.37251 0.36072,-2.06955 -0.20233,-1.13516 -0.47428,-2.27232 -0.43383,-3.41716 z" /><path
       style="fill:#000000;stroke-width:199.749;stroke-dasharray:none"
       id="path14-3"
       d="m 121.01184,140.23833 c -0.22562,0.42768 -0.25562,0.87442 -0.21702,1.32029 0.0268,0.0866 0.0426,0.17485 0.0805,0.25984 0.15315,0.34338 0.47995,0.7665 0.81716,1.05424 0.0964,0.0822 0.20902,0.15654 0.31354,0.2348 0.42533,0.2963 0.88357,0.57955 1.40316,0.81194 0.73327,0.32797 1.55659,0.56953 2.34156,0.84704 0.44523,0.0918 0.22497,0.0522 0.66016,0.12036 0,0 -1.56588,-0.75044 -1.56588,-0.75044 v 0 c -0.41717,-0.0771 -0.20678,-0.0316 -0.63019,-0.1381 0.45305,0.16739 0.90537,0.33554 1.35915,0.50216 0.11588,0.0426 -0.23331,-0.0837 -0.34546,-0.12995 -0.53178,-0.21946 -0.99705,-0.49688 -1.42548,-0.78971 -0.10731,-0.073 -0.22318,-0.14145 -0.32194,-0.21901 -0.34389,-0.27007 -0.6717,-0.68226 -0.8401,-1.01084 -0.0407,-0.0795 -0.061,-0.16256 -0.0916,-0.24384 -0.057,-0.43155 -0.0378,-0.87039 0.22719,-1.27706 z" /><path
       fill="#000000"
       opacity="1"
       stroke="none"
       d="m 194.97656,108.24763 c -0.002,-10.327629 -0.002,-20.438538 -0.006,-30.54945 -0.002,-5.827308 1.50409,-7.576941 6.61099,-7.582893 10.85476,-0.01264 21.70952,-0.0039 32.56428,-0.004 5.11546,-5.3e-5 10.23184,-0.05776 15.34556,0.0512 0.95034,0.02025 2.0834,-1.340571 2.13829,1.01013 0.0749,3.208422 -2.98799,4.086913 -5.51,4.08897 -10.35566,0.0084 -17.61646,0.05021 -27.97212,0.05111 -5.17781,4.34e-4 -10.35561,-0.03015 -15.53341,-0.02824 -2.33614,8.66e-4 -2.56315,0.26115 -2.56462,2.975128 -0.009,16.105211 -0.0116,32.210435 -0.005,48.315655 0.001,2.87763 0.28049,3.18298 2.83778,3.18354 24.51679,0.005 49.03358,0.006 73.55036,-8e-5 2.46138,-4.4e-4 2.77978,-0.38609 2.78652,-3.29296 0.0124,-5.34431 0.0708,-10.69014 -0.023,-16.03221 -0.0339,-1.93072 0.46654,-2.86045 2.19034,-2.77094 0.48617,0.0252 0.98509,-0.14721 1.4708,-0.26851 0.97205,-0.24277 1.41467,0.21875 1.41366,1.34289 -0.006,7.22171 0.0587,14.44481 -0.0506,21.66438 -0.0389,2.56466 -1.82212,4.31003 -4.10165,4.42109 -1.61923,0.0789 -3.24337,0.0227 -4.86531,0.0278 l -70.72762,0.0133 c -1.55954,-0.0124 -3.11929,8.7e-4 -4.6787,-0.0202 -3.24834,-0.0441 -4.84197,-1.82872 -4.85974,-5.58011 -0.0329,-6.93272 -0.0103,-13.8658 -0.0111,-21.01546"
       id="path1-5"
       sodipodi:nodetypes="cssssssssscccssssssscccsc"
       style="stroke-width:0.40284" /><path
       fill="#000000"
       opacity="1"
       stroke="none"
       d="m 216.23149,107.04708 c 0.35473,-0.0221 0.51066,-0.0366 0.66684,-0.0476 1.87902,-0.13244 3.58218,-2.76755 4.77264,-2.0049 5.04908,3.23461 11.46823,3.45415 16.01871,7.62336 2.14241,1.96291 2.06368,4.66703 2.36033,7.2008 0.24605,2.10152 0.17394,4.24053 0.24644,6.3628 0.0191,0.56162 0.003,1.10184 -0.49604,1.49196 -1.55538,1.21523 -6.40327,0.0401 -7.22485,-1.74345 -0.0541,-0.11746 -0.24665,-0.17051 -0.61667,-0.41023 -0.97663,3.57598 -3.84937,2.46053 -6.23467,2.47858 -6.96916,0.0528 -13.939,0.012 -20.90858,0.007 -4.41179,-0.003 -4.41179,-0.003 -6.90886,-2.35538 -1.19655,2.0854 -5.08941,3.19164 -7.36919,2.13735 -0.80295,-0.37132 -0.98579,-1.03673 -0.86105,-1.74647 0.50598,-2.87883 0.26367,-5.8008 0.57237,-8.70233 0.31205,-2.93308 1.73534,-4.77208 4.03671,-6.2221 3.02096,-1.90342 6.53295,-2.61071 9.73147,-4.05472 2.96912,-1.34044 5.69241,-2.75828 8.79852,-0.23037 0.68418,0.55682 2.12487,0.17445 3.41588,0.21535 z"
       id="path3-2"
       style="stroke-width:0.471765" /><path
       fill="#000000"
       opacity="1"
       stroke="none"
       d="m 261.40596,55.361604 c 17.6316,-4.616427 33.65852,6.905057 36.61418,22.675599 3.82803,20.425381 -14.33768,38.425837 -34.57894,34.307247 -4.32134,-0.87929 -7.73458,-2.48181 -13.00043,-3.22346 -7.98365,-1.12442 -11.26323,-1.68675 -19.31616,-2.03386 -0.89813,-0.0387 -3.0771,-3.2824 -3.92133,-3.82267 -0.0334,-1.07292 1.50951,-0.17295 5.50945,-1.57061 2.75507,-0.96267 4.72593,-2.832554 5.83397,-3.872361 2.92926,-2.748876 4.02595,-3.833306 2.77763,-7.525306 -4.70344,-13.91077 5.2896,-31.018572 20.08163,-34.934579 m 4.30502,53.467446 c 12.40863,1.5113 25.01262,-6.23822 28.03515,-19.131936 3.46598,-14.78547 -5.78175,-28.793154 -20.70351,-31.120359 -11.79835,-1.840077 -23.32323,5.113349 -27.44286,16.381003 -1.68914,4.619961 -1.98685,9.139405 -0.58681,13.874597 1.74667,5.907555 0.48063,9.123322 -4.57086,12.600075 -0.93247,0.64176 -1.85934,1.29171 -3.13036,2.17534 1.02433,0.11185 2.18436,0.10798 2.75178,0.0786 7.41403,1.07015 12.24604,2.17798 21.05804,4.09419 1.37436,0.29886 2.77491,0.64706 4.58943,1.04854 z"
       id="path4-7"
       sodipodi:nodetypes="csssscsssccsssssccscc"
       style="stroke-width:0.506191" /><path
       fill="#000000"
       opacity="1"
       stroke="none"
       d="m 223.33348,97.21372 c -1.09231,2.308826 -2.24744,4.33803 -4.08177,5.92644 -2.92483,2.53268 -6.34306,2.76808 -9.1337,0.14098 -5.40461,-5.087917 -7.26744,-11.502487 -5.77936,-18.702062 0.97479,-4.716139 5.97836,-7.901007 10.92894,-7.52399 5.12524,0.390312 9.14899,4.088711 9.79045,8.972365 0.50401,3.837012 0.0441,7.522059 -1.72456,11.186267 z"
       id="path5-9"
       style="stroke-width:0.471765" /><path
       fill="#000000"
       opacity="1"
       stroke="none"
       d="m 272.59017,63.313086 c 2.47316,-1.988386 4.43344,-0.249164 6.3968,0.622108 1.72941,0.76746 1.11325,2.315174 0.86166,3.759013 -0.37747,2.166528 1.93393,4.176759 4.11217,3.714111 3.02647,-0.642807 6.02105,1.918776 5.94382,5.079589 -0.0317,1.294905 -1.03948,1.842582 -1.88529,2.525071 -2.15033,1.735109 -1.97057,4.513142 0.38036,5.9979 2.57664,1.627322 2.48232,1.593739 0.86701,6.130186 -0.78008,2.190888 -2.12849,2.213414 -3.96682,1.825278 -2.30547,-0.486774 -4.28251,1.744878 -3.74592,4.104057 0.67247,2.956521 -2.33589,6.248551 -5.42008,5.950111 -0.96887,-0.0937 -1.40395,-0.82197 -1.91422,-1.48723 -2.12587,-2.771549 -4.79238,-2.636004 -6.41409,0.40119 -0.77564,1.45262 -1.8341,1.88854 -3.32757,1.43275 -0.88365,-0.26972 -1.74782,-0.60255 -2.6253,-0.89323 -1.7383,-0.57575 -2.30241,-1.71751 -1.91771,-3.528546 0.60203,-2.834081 -1.5796,-5.061785 -4.21891,-4.193385 -2.18664,0.71944 -3.43315,0.245829 -4.3652,-1.907388 -1.71229,-3.955722 -1.78843,-4.001645 0.76474,-5.970811 2.11019,-1.627503 1.94634,-4.443132 -0.43136,-5.651526 -1.87656,-0.953713 -2.73629,-2.16625 -1.72939,-4.233158 0.90549,-1.858735 0.60567,-4.768854 4.25624,-3.98221 3.06037,0.659462 4.89361,-1.607704 4.01362,-4.695614 -0.58752,-2.061559 0.0875,-3.234076 1.98607,-3.934782 1.86395,-0.687917 3.64499,-2.486982 5.56859,0.02625 2.39797,3.133001 4.95366,2.734237 6.81077,-1.089753 z"
       id="path6-1"
       style="stroke-width:0.506191" /><path
       style="fill:#000000;stroke-width:5;stroke-dasharray:none"
       d="m 233.53145,160.92079 c 36.9301,0 36.9301,0 36.9301,0"
       id="path2-7" /><ellipse
       style="fill:#000000;stroke-width:365.743;stroke-dasharray:none"
       id="path15-4"
       cx="239.45023"
       cy="141.59152"
       rx="4.1104817"
       ry="4.1104808" /><ellipse
       style="fill:#000000;stroke-width:245.13;stroke-dasharray:none"
       id="path15-4-0"
       cx="504.1785"
       cy="273.4614"
       rx="2.7549374"
       ry="2.7549369" /><ellipse
       style="fill:#000000;stroke-width:292.214;stroke-dasharray:none"
       id="path15-4-0-5"
       cx="617.11743"
       cy="174.73412"
       rx="3.2841041"
       ry="3.2841036" /><path
       id="path24"
       style="fill:#000000;stroke-width:450.365;stroke-dasharray:none"
       d="m 233.92189,136.3336 a 5.0411235,5.0820501 0 0 1 1.97721,0.41548 5.0411235,5.0820501 0 0 0 -2.8965,4.59921 5.0411235,5.0820501 0 0 0 3.05922,4.66511 5.0411235,5.0820501 0 0 1 -2.13993,0.48464 5.0411235,5.0820501 0 0 1 -4.61966,-3.04994 c -2.58913,0.0319 -10.72954,0.0969 -13.69904,0.77581 -2.10943,0.4823 -5.42361,2.33629 -7.84669,2.33629 -2.78413,0 -5.04106,-2.27525 -5.04106,-5.08198 0,-2.80674 2.25693,-5.08199 5.04106,-5.08199 3.82007,0 5.23111,2.71258 8.10121,3.42382 2.53959,0.62934 9.85997,0.27829 13.24008,0.14721 a 5.0411235,5.0820501 0 0 1 4.8241,-3.63366 z" /><path
       id="ellipse23"
       style="fill:#000000;stroke-width:452.19;stroke-dasharray:none"
       d="m 278.62116,136.43456 a 5.0820498,5.0820501 0 0 0 -2.26432,0.54306 c 1.5447,0.87186 2.58913,2.52555 2.58913,4.42582 0,1.98553 -1.14093,3.7008 -2.80084,4.53706 a 5.0820498,5.0820501 0 0 0 2.47603,0.6585 5.0820498,5.0820501 0 0 0 5.08199,-5.08199 5.0820498,5.0820501 0 0 0 -5.08199,-5.08245 z" /><path
       id="path25"
       style="fill:#000000;stroke-width:452.19;stroke-dasharray:none"
       d="m 245.84218,136.40834 a 5.0820498,5.0820501 0 0 0 -1.99325,0.41548 5.0820498,5.0820501 0 0 1 2.92001,4.59921 5.0820498,5.0820501 0 0 1 -3.08405,4.66511 5.0820498,5.0820501 0 0 0 2.15729,0.48464 5.0820498,5.0820501 0 0 0 4.65717,-3.04994 c 2.61015,0.0319 10.81665,0.0969 13.81025,0.7758 2.12657,0.48231 5.46765,2.3363 7.91041,2.3363 2.80673,0 5.08198,-2.27526 5.08198,-5.08199 0,-2.80673 -2.27525,-5.08198 -5.08198,-5.08198 -3.85109,0 -5.27358,2.71258 -8.16699,3.42382 -2.5602,0.62933 -9.94001,0.27829 -13.34757,0.14721 a 5.0820498,5.0820501 0 0 0 -4.86327,-3.63366 z" /><path
       id="path26"
       style="fill:#000000;stroke-width:486.806;stroke-dasharray:none"
       d="m 201.13509,146.98802 a 5.4710615,5.4710617 0 0 0 2.43765,-0.58463 c -1.66294,-0.93859 -2.78732,-2.71888 -2.78732,-4.7646 0,-2.13751 1.22826,-3.98408 3.01523,-4.88435 a 5.4710615,5.4710617 0 0 0 -2.66556,-0.70891 5.4710615,5.4710617 0 0 0 -5.47099,5.47099 5.4710615,5.4710617 0 0 0 5.47099,5.4715 z" /><path
       id="path1-5-4"
       style="stroke-width:0.40284"
       d="m 314.9353,229.23045 c -0.40892,0.0438 -0.9294,0.37909 -1.40456,0.36897 -5.11373,-0.10896 -10.23038,-0.0512 -15.34584,-0.0512 -10.85475,0 -21.70967,-0.009 -32.56442,0.003 -5.10689,0.006 -6.61269,1.7557 -6.61097,7.583 0.003,10.11091 0.004,20.22194 0.006,30.54956 8.6e-4,7.14965 -0.0215,14.08305 0.0114,21.01577 0.0178,3.75139 1.61132,5.53591 4.85965,5.58002 1.1724,0.0159 2.34507,0.0124 3.51761,0.015 v -5.0993 c -0.16088,-3e-5 -0.32177,4e-5 -0.48265,0 -2.5573,-4.3e-4 -2.83626,-0.30615 -2.83756,-3.18378 -0.006,-16.1052 -0.003,-32.2102 0.005,-48.3154 0.001,-2.71398 0.22856,-2.97414 2.5647,-2.97501 5.1778,-0.002 10.35562,0.0284 15.53342,0.0279 10.35565,-8.6e-4 17.61629,-0.0427 27.97194,-0.0512 2.52201,-0.002 5.58518,-0.88022 5.51025,-4.08864 -0.0274,-1.17534 -0.32488,-1.42307 -0.7338,-1.37924 z m 32.30087,37.54241 c -0.10513,0.008 -0.21853,0.0275 -0.34003,0.0579 -0.48571,0.12131 -0.98454,0.29394 -1.47071,0.26872 -1.7238,-0.0895 -2.22398,0.84017 -2.19005,2.77089 0.0938,5.34206 0.0351,10.68779 0.0227,16.0321 -0.007,2.90686 -0.32503,3.2929 -2.7864,3.29333 -0.16278,5e-5 -0.32556,-4e-5 -0.48834,0 v 5.0953 c 1.3921,0.007 2.78506,0.0361 4.17442,-0.0315 2.27953,-0.11106 4.06271,-1.85678 4.10156,-4.42143 0.10933,-7.21957 0.0442,-14.44262 0.0506,-21.66432 8.6e-4,-0.98362 -0.33793,-1.45987 -1.07383,-1.40094 z" /><path
       fill="#000000"
       opacity="1"
       stroke="none"
       d="m 279.25989,265.4109 c 0.33352,-0.0208 0.48013,-0.0344 0.62697,-0.0448 1.76667,-0.12451 3.36799,-2.60206 4.48726,-1.88502 4.74719,3.04121 10.78252,3.24762 15.06092,7.16754 2.0143,1.84555 1.94028,4.38797 2.2192,6.77025 0.23133,1.97586 0.16354,3.98698 0.2317,5.98234 0.018,0.52804 0.003,1.03596 -0.46638,1.40276 -1.46238,1.14256 -6.0204,0.0376 -6.79286,-1.63921 -0.0509,-0.11044 -0.23189,-0.16031 -0.5798,-0.3857 -0.91823,3.36216 -3.61919,2.31341 -5.86187,2.33038 -6.55245,0.0496 -13.10556,0.0113 -19.6584,0.007 -4.148,-0.003 -4.148,-0.003 -6.49576,-2.21455 -1.125,1.96071 -4.7851,3.0008 -6.92857,2.00955 -0.75493,-0.34912 -0.92684,-0.97474 -0.80956,-1.64205 0.47573,-2.70669 0.2479,-5.45394 0.53815,-8.18199 0.29339,-2.7577 1.63158,-4.48674 3.79534,-5.85006 2.84033,-1.78961 6.14233,-2.45461 9.1496,-3.81227 2.79159,-1.2603 5.35204,-2.59336 8.27243,-0.2166 0.64327,0.52353 1.99782,0.16402 3.21163,0.20247 z"
       id="path3-2-4"
       style="stroke-width:0.443556" /><path
       fill="#000000"
       opacity="1"
       stroke="none"
       d="m 339.14486,224.63453 c 18.12594,1.90652 29.05239,18.34487 26.24921,34.14323 -3.63059,20.4614 -26.98205,30.88823 -44.4653,19.88788 -3.73252,-2.34847 -6.36007,-5.05297 -11.02486,-7.60618 -7.07239,-3.87097 -9.94217,-5.55507 -17.35384,-8.72325 -0.82661,-0.35334 -1.7199,-4.15748 -2.31899,-4.96104 0.34757,-1.01561 1.47335,0.37118 5.70915,0.4759 2.91753,0.0721 5.42168,-0.98141 6.82549,-1.56301 3.71119,-1.53751 5.12015,-2.16485 5.25585,-6.05982 0.51131,-14.6755 15.90132,-27.1529 31.12329,-25.59371 m -14.85124,51.54359 c 11.07574,5.79535 25.60419,2.99537 32.9847,-8.00061 8.46337,-12.6093 4.75732,-28.98003 -8.38158,-36.4261 -10.38868,-5.88747 -23.62644,-3.45128 -31.45924,5.636 -3.21162,3.72596 -5.08593,7.84918 -5.44803,12.77372 -0.45175,6.14377 -2.77171,8.70537 -8.72544,10.17454 -1.09901,0.27117 -2.19567,0.55199 -3.69682,0.92991 0.91885,0.46633 2.00553,0.87231 2.54678,1.04515 6.55863,3.61905 10.68823,6.36167 18.25603,11.26592 1.18031,0.76488 2.36771,1.58518 3.92359,2.60149 z"
       id="path4-7-2"
       sodipodi:nodetypes="csssscsssccsssssccscc"
       style="stroke-width:0.506191" /><path
       fill="#000000"
       opacity="1"
       stroke="none"
       d="m 286.95586,255.91085 c -1.027,2.17077 -2.11306,4.07865 -3.83771,5.57208 -2.74994,2.38125 -5.96379,2.60257 -8.58757,0.13255 -5.08145,-4.7837 -6.83289,-10.81472 -5.43379,-17.58381 0.9165,-4.43415 5.62089,-7.42858 10.27547,-7.07411 4.81878,0.36697 8.60194,3.84424 9.20505,8.43588 0.47387,3.60759 0.0414,7.07229 -1.62145,10.51741 z"
       id="path5-9-3"
       style="stroke-width:0.443556" /><path
       fill="#000000"
       opacity="1"
       stroke="none"
       d="m 340.25176,233.26796 c 2.47316,-1.98839 4.43344,-0.24917 6.3968,0.62211 1.72942,0.76746 1.11325,2.31517 0.86167,3.75901 -0.37747,2.16653 1.93392,4.17676 4.11217,3.71411 3.02646,-0.64281 6.02104,1.91877 5.94381,5.07959 -0.0317,1.2949 -1.03948,1.84258 -1.88529,2.52507 -2.15033,1.73511 -1.97056,4.51314 0.38036,5.9979 2.57664,1.62732 2.48233,1.59374 0.86701,6.13019 -0.78008,2.19088 -2.12849,2.21341 -3.96682,1.82527 -2.30546,-0.48677 -4.28251,1.74488 -3.74592,4.10406 0.67248,2.95652 -2.33589,6.24856 -5.42008,5.95011 -0.96886,-0.0937 -1.40395,-0.82196 -1.91422,-1.48722 -2.12587,-2.77156 -4.79238,-2.63601 -6.41408,0.40118 -0.77565,1.45262 -1.8341,1.88854 -3.32758,1.43275 -0.88365,-0.26971 -1.74781,-0.60255 -2.6253,-0.89323 -1.7383,-0.57574 -2.30241,-1.71751 -1.9177,-3.52854 0.60202,-2.83408 -1.5796,-5.06179 -4.21892,-4.19339 -2.18664,0.71944 -3.43315,0.24583 -4.3652,-1.90739 -1.71228,-3.95572 -1.78843,-4.00164 0.76474,-5.97081 2.11019,-1.6275 1.94634,-4.44313 -0.43135,-5.65152 -1.87657,-0.95372 -2.7363,-2.16625 -1.7294,-4.23316 0.90549,-1.85874 0.60567,-4.76885 4.25624,-3.98221 3.06037,0.65946 4.89362,-1.6077 4.01362,-4.69562 -0.58752,-2.06155 0.0875,-3.23407 1.98607,-3.93478 1.86395,-0.68791 3.64499,-2.48698 5.56859,0.0262 2.39797,3.133 4.95366,2.73423 6.81078,-1.08976 z"
       id="path6-1-5"
       style="stroke-width:0.506191" /><path
       style="fill:#000000;stroke-width:5;stroke-dasharray:none"
       d="m 297.57016,320.3576 c 36.93009,0 36.93009,0 36.93009,0"
       id="path2-7-6" /><ellipse
       style="fill:#000000;stroke-width:311.056;stroke-dasharray:none"
       id="path15-4-4"
       cx="303.05637"
       cy="291.55087"
       rx="3.4958737"
       ry="3.4958732" /><path
       id="path24-1"
       style="fill:#000000;stroke-width:383.025;stroke-dasharray:none"
       d="m 298.35464,287.07915 a 4.2873641,4.3221714 0 0 1 1.68157,0.35336 4.2873641,4.3221714 0 0 0 -2.46341,3.91152 4.2873641,4.3221714 0 0 0 2.6018,3.96757 4.2873641,4.3221714 0 0 1 -1.81996,0.41218 4.2873641,4.3221714 0 0 1 -3.92892,-2.5939 c -2.202,0.0271 -9.12524,0.0824 -11.65073,0.6598 -1.79403,0.41019 -4.61267,1.98697 -6.67344,1.98697 -2.36785,0 -4.28731,-1.93506 -4.28731,-4.32212 0,-2.38707 1.91946,-4.32212 4.28731,-4.32212 3.24888,0 4.44894,2.307 6.88989,2.91189 2.15987,0.53523 8.38569,0.23668 11.26041,0.1252 a 4.2873641,4.3221714 0 0 1 4.10279,-3.09035 z" /><path
       id="ellipse23-1"
       style="fill:#000000;stroke-width:384.577;stroke-dasharray:none"
       d="m 336.37037,287.16501 a 4.322171,4.3221714 0 0 0 -1.92575,0.46186 c 1.31374,0.7415 2.202,2.14793 2.202,3.76407 0,1.68864 -0.97033,3.14744 -2.38205,3.85866 a 4.322171,4.3221714 0 0 0 2.1058,0.56004 4.322171,4.3221714 0 0 0 4.32212,-4.32212 4.322171,4.3221714 0 0 0 -4.32212,-4.32251 z" /><path
       id="path25-6"
       style="fill:#000000;stroke-width:384.577;stroke-dasharray:none"
       d="m 308.49258,287.14271 a 4.322171,4.3221714 0 0 0 -1.69522,0.35336 4.322171,4.3221714 0 0 1 2.48341,3.91153 4.322171,4.3221714 0 0 1 -2.62292,3.96757 4.322171,4.3221714 0 0 0 1.83473,0.41218 4.322171,4.3221714 0 0 0 3.96082,-2.59391 c 2.21988,0.0271 9.19932,0.0824 11.74531,0.6598 1.8086,0.4102 4.65012,1.98697 6.72763,1.98697 2.38706,0 4.32212,-1.93505 4.32212,-4.32212 0,-2.38706 -1.93506,-4.32211 -4.32212,-4.32211 -3.27527,0 -4.48506,2.30699 -6.94584,2.91188 -2.1774,0.53524 -8.45377,0.23668 -11.35182,0.1252 a 4.322171,4.3221714 0 0 0 -4.1361,-3.09035 z" /><path
       id="path26-1"
       style="fill:#000000;stroke-width:414.018;stroke-dasharray:none"
       d="m 270.47019,296.1405 a 4.6530169,4.6530173 0 0 0 2.07316,-0.49721 c -1.41429,-0.79826 -2.37055,-2.31235 -2.37055,-4.0522 0,-1.8179 1.04461,-3.38837 2.56439,-4.15403 a 4.6530169,4.6530173 0 0 0 -2.267,-0.60291 4.6530169,4.6530173 0 0 0 -4.65296,4.65296 4.6530169,4.6530173 0 0 0 4.65296,4.65339 z" /><path
       id="path1-5-4-6"
       style="stroke-width:0.40284"
       d="m 321.63205,340.51358 c -2.55781,8.7e-4 -5.11571,0.0155 -7.67344,0.0155 -10.85472,0 -21.7097,-0.009 -32.56442,0.003 -5.10688,0.006 -6.61269,1.75571 -6.61096,7.583 0.003,9.66621 0.004,20.92051 0.006,30.77609 l 5.02917,-2.02463 c 3.6e-4,-9.54788 0.0393,-18.64129 0.0444,-28.18922 0.001,-2.71397 0.22856,-2.97414 2.5647,-2.97501 5.17779,-0.002 10.35564,0.0283 15.53342,0.0279 9.8014,-8.6e-4 19.28433,-0.0374 28.78894,-0.0486 l 5.20589,-4.89583 c -0.93452,-0.005 -9.3888,-0.27263 -10.3234,-0.27233 z m 37.61935,53.40313 c -0.074,1.25152 -0.21771,2.17632 -0.21957,2.96656 -0.007,2.90685 -0.32503,3.29291 -2.78639,3.29334 -0.16278,4e-5 -0.32556,-4e-5 -0.48834,0 v 5.09529 c 1.3921,0.007 2.78506,0.0361 4.17442,-0.0315 2.27952,-0.11105 4.0627,-1.85677 4.10156,-4.42143 0.0318,-2.1018 0.0723,-8.39965 0.0723,-8.39965 -1.36489,0.50068 -3.22626,1.32793 -4.85397,1.4974 z m -84.52709,2.92181 c 0,0 0.0724,2.07845 0.076,2.84199 0.0178,3.75139 1.61133,5.53591 4.85965,5.58002 1.1724,0.0159 2.34508,0.0124 3.51761,0.015 v -5.09891 c -0.16088,-4e-5 -0.32177,3e-5 -0.48265,0 -2.43341,-4.2e-4 -2.79954,-1.08956 -2.83084,-3.59574 0,0 -1.47026,-0.33067 -1.98106,-1.03781 -0.60206,0.77299 -3.1587,1.29545 -3.1587,1.29545 z"
       sodipodi:nodetypes="scscccccsccsscsccsscccscccccccs" /><path
       fill="#000000"
       opacity="1"
       stroke="none"
       d="m 295.03339,376.3916 c 0.33351,-0.0208 0.48013,-0.0344 0.62696,-0.0448 1.76668,-0.12451 3.36799,-2.60206 4.48727,-1.88502 4.74718,3.04121 10.78251,3.24762 15.06091,7.16754 2.0143,1.84555 1.94029,4.38797 2.2192,6.77025 0.23134,1.97586 0.16354,3.98698 0.2317,5.98234 0.018,0.52804 0.003,1.03596 -0.46638,1.40276 -1.46237,1.14256 -6.0204,0.0376 -6.79285,-1.63921 -0.0509,-0.11044 -0.2319,-0.16031 -0.5798,-0.3857 -0.91823,3.36217 -3.6192,2.31341 -5.86188,2.33039 -6.55245,0.0496 -13.10555,0.0113 -19.6584,0.007 -4.14799,-0.003 -4.14799,-0.003 -6.49576,-2.21455 -1.125,1.96071 -4.7851,3.00081 -6.92857,2.00955 -0.75492,-0.34912 -0.92684,-0.97474 -0.80955,-1.64205 0.47572,-2.70669 0.24789,-5.45394 0.53814,-8.18199 0.2934,-2.7577 1.63158,-4.48674 3.79535,-5.85006 2.84032,-1.78961 6.14232,-2.45461 9.14959,-3.81227 2.79159,-1.2603 5.35204,-2.59336 8.27244,-0.2166 0.64326,0.52353 1.99781,0.16402 3.21163,0.20247 z"
       id="path3-2-4-6"
       style="stroke-width:0.443556" /><path
       fill="#000000"
       opacity="1"
       stroke="none"
       d="m 354.91835,335.61523 c 18.12595,1.90652 29.05239,18.34487 26.24921,34.14323 -3.63059,20.4614 -26.98204,30.88824 -44.46529,19.88788 -3.73252,-2.34847 -6.36007,-5.05297 -11.02487,-7.60618 -7.07238,-3.87097 -9.94216,-5.55507 -17.35384,-8.72325 -0.82661,-0.35334 -1.7199,-4.15747 -2.31899,-4.96104 0.34758,-1.01561 1.47335,0.37118 5.70915,0.4759 2.91753,0.0721 5.42168,-0.98141 6.8255,-1.563 3.71119,-1.53752 5.12014,-2.16486 5.25585,-6.05983 0.5113,-14.6755 15.90132,-27.1529 31.12328,-25.59371 m -14.85124,51.54359 c 11.07574,5.79535 25.60419,2.99537 32.98471,-8.00061 8.46337,-12.6093 4.75731,-28.98003 -8.38159,-36.4261 -10.38868,-5.88747 -23.62643,-3.45128 -31.45924,5.636 -3.21161,3.72596 -5.08592,7.84918 -5.44803,12.77372 -0.45175,6.14377 -2.7717,8.70537 -8.72543,10.17454 -1.09901,0.27117 -2.19567,0.55199 -3.69682,0.92991 0.91885,0.46633 2.00552,0.87231 2.54678,1.04515 6.55862,3.61905 10.68822,6.36168 18.25603,11.26592 1.1803,0.76488 2.3677,1.58518 3.92358,2.6015 z"
       id="path4-7-2-2"
       sodipodi:nodetypes="csssscsssccsssssccscc"
       style="stroke-width:0.506191" /><path
       fill="#000000"
       opacity="1"
       stroke="none"
       d="m 302.72936,366.89155 c -1.027,2.17077 -2.11307,4.07865 -3.83771,5.57208 -2.74995,2.38125 -5.9638,2.60257 -8.58758,0.13255 -5.08145,-4.7837 -6.83289,-10.81472 -5.43379,-17.58381 0.9165,-4.43415 5.6209,-7.42858 10.27548,-7.07411 4.81877,0.36698 8.60193,3.84424 9.20504,8.43588 0.47387,3.60759 0.0414,7.07229 -1.62144,10.51741 z"
       id="path5-9-3-9"
       style="stroke-width:0.443556" /><path
       fill="#000000"
       opacity="1"
       stroke="none"
       d="m 356.02526,344.24866 c 2.47315,-1.98839 4.43344,-0.24917 6.3968,0.62211 1.72941,0.76746 1.11324,2.31517 0.86166,3.75901 -0.37747,2.16653 1.93393,4.17676 4.11217,3.71411 3.02646,-0.64281 6.02104,1.91878 5.94381,5.07959 -0.0317,1.2949 -1.03947,1.84258 -1.88528,2.52507 -2.15034,1.73511 -1.97057,4.51314 0.38035,5.9979 2.57665,1.62732 2.48233,1.59374 0.86702,6.13019 -0.78009,2.19088 -2.12849,2.21341 -3.96683,1.82527 -2.30546,-0.48677 -4.28251,1.74488 -3.74591,4.10406 0.67247,2.95652 -2.33589,6.24856 -5.42008,5.95011 -0.96887,-0.0937 -1.40396,-0.82196 -1.91422,-1.48722 -2.12587,-2.77156 -4.79238,-2.63601 -6.41409,0.40118 -0.77564,1.45262 -1.8341,1.88854 -3.32758,1.43275 -0.88364,-0.26971 -1.74781,-0.60255 -2.6253,-0.89323 -1.73829,-0.57574 -2.3024,-1.7175 -1.9177,-3.52854 0.60202,-2.83408 -1.5796,-5.06179 -4.21892,-4.19339 -2.18663,0.71944 -3.43314,0.24583 -4.36519,-1.90739 -1.71229,-3.95572 -1.78843,-4.00164 0.76474,-5.97081 2.11019,-1.6275 1.94633,-4.44313 -0.43136,-5.65152 -1.87656,-0.95372 -2.73629,-2.16625 -1.7294,-4.23316 0.90549,-1.85874 0.60567,-4.76885 4.25624,-3.98221 3.06037,0.65946 4.89362,-1.6077 4.01363,-4.69562 -0.58753,-2.06155 0.0875,-3.23407 1.98606,-3.93478 1.86395,-0.68791 3.645,-2.48698 5.5686,0.0262 2.39797,3.133 4.95365,2.73423 6.81077,-1.08976 z"
       id="path6-1-5-0"
       style="stroke-width:0.506191" /><ellipse
       style="fill:#ffffff;fill-opacity:0;stroke:#000000;stroke-width:1.81225;stroke-dasharray:none;stroke-opacity:1"
       id="path15-4-4-9"
       cx="319.06372"
       cy="402.4848"
       rx="2.4366612"
       ry="2.436661" /><path
       id="path24-1-8"
       style="fill:#000000;stroke-width:383.025;stroke-dasharray:none"
       d="m 314.12813,398.05985 a 4.2873641,4.3221714 0 0 1 1.68157,0.35336 4.2873641,4.3221714 0 0 0 -2.46341,3.91152 4.2873641,4.3221714 0 0 0 2.6018,3.96758 4.2873641,4.3221714 0 0 1 -1.81996,0.41217 4.2873641,4.3221714 0 0 1 -3.92892,-2.5939 c -2.202,0.0271 -9.12524,0.0824 -11.65073,0.6598 -1.79403,0.41019 -4.61266,1.98697 -6.67344,1.98697 -2.36784,0 -4.28731,-1.93506 -4.28731,-4.32212 0,-2.38707 1.91947,-4.32212 4.28731,-4.32212 3.24889,0 4.44894,2.307 6.8899,2.91189 2.15987,0.53523 8.38569,0.23668 11.2604,0.1252 a 4.2873641,4.3221714 0 0 1 4.10279,-3.09035 z" /><path
       id="ellipse23-1-2"
       style="fill:#000000;stroke-width:384.577;stroke-dasharray:none"
       d="m 352.14387,398.14571 a 4.322171,4.3221714 0 0 0 -1.92575,0.46186 c 1.31373,0.7415 2.20199,2.14793 2.20199,3.76407 0,1.68864 -0.97033,3.14744 -2.38205,3.85866 a 4.322171,4.3221714 0 0 0 2.10581,0.56004 4.322171,4.3221714 0 0 0 4.32212,-4.32212 4.322171,4.3221714 0 0 0 -4.32212,-4.32251 z" /><path
       id="path25-6-5"
       style="fill:#000000;stroke-width:384.577;stroke-dasharray:none"
       d="m 324.26607,398.12341 a 4.322171,4.3221714 0 0 0 -1.69521,0.35336 4.322171,4.3221714 0 0 1 2.4834,3.91153 4.322171,4.3221714 0 0 1 -2.62292,3.96757 4.322171,4.3221714 0 0 0 1.83473,0.41218 4.322171,4.3221714 0 0 0 3.96082,-2.59391 c 2.21988,0.0271 9.19932,0.0824 11.74531,0.6598 1.8086,0.4102 4.65012,1.98697 6.72763,1.98697 2.38707,0 4.32212,-1.93505 4.32212,-4.32212 0,-2.38706 -1.93505,-4.32211 -4.32212,-4.32211 -3.27527,0 -4.48506,2.30699 -6.94584,2.91188 -2.1774,0.53524 -8.45376,0.23668 -11.35181,0.1252 a 4.322171,4.3221714 0 0 0 -4.13611,-3.09035 z" /><path
       id="path26-1-4"
       style="fill:#000000;stroke-width:414.018;stroke-dasharray:none"
       d="m 286.24368,407.1212 a 4.6530169,4.6530173 0 0 0 2.07317,-0.49721 c -1.4143,-0.79826 -2.37056,-2.31235 -2.37056,-4.0522 0,-1.8179 1.04461,-3.38837 2.56439,-4.15403 a 4.6530169,4.6530173 0 0 0 -2.267,-0.6029 4.6530169,4.6530173 0 0 0 -4.65296,4.65295 4.6530169,4.6530173 0 0 0 4.65296,4.65339 z" /><path
       id="path1-5-4-6-3"
       style="stroke-width:0.345241"
       d="m 439.36076,361.03378 c -2.13459,-0.0148 -4.26913,0.003 -8.61394,0.005 h -0.078 c 0.0618,1.28226 0.0138,2.55046 -0.15553,3.80906 5.27523,-0.009 10.15009,-0.0186 16.65065,-0.0243 l 0.80978,-3.59616 c -4.34356,-0.13085 -6.47836,-0.1785 -8.61295,-0.19327 z m -33.10855,0.007 c -5.10688,0.004 -6.6127,1.28914 -6.61097,5.56916 0.003,7.09963 0.004,15.36611 0.006,22.60483 l 5.02915,-1.48725 c 3.6e-4,-7.01272 0.0394,-13.69192 0.0444,-20.70468 10e-4,-1.99335 0.22856,-2.18425 2.5647,-2.18488 0.26837,-7e-5 0.53674,8.7e-4 0.80512,8.7e-4 -0.14061,-1.23565 -0.1716,-2.50245 -0.0894,-3.79822 -0.69855,4.3e-4 -0.97378,-4.4e-4 -1.74873,0 z m 82.71124,38.10982 c -1.36487,0.36773 -3.22629,0.9752 -4.85398,1.09967 -0.074,0.91922 -0.21777,1.59878 -0.21962,2.17919 -0.007,2.13503 -0.32505,2.41866 -2.78641,2.41898 -0.16278,3e-5 -0.32556,-3e-5 -0.48835,0 v 3.7424 c 1.39213,0.005 2.78507,0.0264 4.17444,-0.0233 2.27952,-0.0816 4.06271,-1.36366 4.10156,-3.24735 0.0319,-1.54372 0.0724,-6.16965 0.0724,-6.16965 z m -86.22266,2.29443 c -0.60206,0.56774 -3.15846,0.95136 -3.15846,0.95136 0,0 0.0723,1.52693 0.076,2.08773 0.0178,2.75532 1.61134,4.06554 4.85965,4.09794 1.1724,0.0117 2.34509,0.009 3.51762,0.0114 v -3.74498 c -0.16088,-3e-5 -0.32177,2e-5 -0.48266,0 -2.4334,-3.1e-4 -2.79954,-0.80045 -2.83083,-2.64119 0,0 -1.47047,-0.24285 -1.98128,-0.76222 z" /><path
       fill="#000000"
       opacity="1"
       stroke="none"
       d="m 419.8913,379.70732 c 0.33352,-0.0208 0.48014,-0.0344 0.62697,-0.0448 1.76667,-0.12451 3.36799,-2.60207 4.48727,-1.88502 4.74716,3.04121 10.7825,3.24761 15.0609,7.16754 2.01432,1.84555 1.94028,4.38797 2.21919,6.77025 0.23134,1.97586 0.16356,3.98697 0.23173,5.98234 0.0181,0.52804 0.004,1.03596 -0.4664,1.40276 -1.46237,1.14256 -6.02041,0.0376 -6.79284,-1.63921 -0.0509,-0.11044 -0.23191,-0.16031 -0.57981,-0.3857 -0.91822,3.36216 -3.61921,2.31341 -5.86185,2.33038 -6.55247,0.0496 -13.10558,0.0113 -19.65842,0.007 -4.148,-0.003 -4.148,-0.003 -6.49576,-2.21455 -1.125,1.96071 -4.7851,3.0008 -6.92857,2.00955 -0.75493,-0.34912 -0.92684,-0.97474 -0.80956,-1.64205 0.47573,-2.70669 0.2479,-5.45394 0.53815,-8.18199 0.29339,-2.7577 1.63158,-4.48674 3.79535,-5.85006 2.84032,-1.78961 6.14232,-2.45461 9.14959,-3.81227 2.79159,-1.2603 5.35204,-2.59336 8.27243,-0.2166 0.64327,0.52353 1.99782,0.16401 3.21163,0.20247 z"
       id="path3-2-4-6-2"
       style="stroke-width:0.443556" /><path
       fill="#000000"
       opacity="1"
       stroke="none"
       d="m 479.77626,338.93095 c 18.12596,1.90651 29.0524,18.34487 26.24922,34.14323 -3.63059,20.4614 -26.98203,30.88823 -44.46531,19.88788 -3.73249,-2.34848 -6.36004,-5.05297 -11.02485,-7.60618 -7.0724,-3.87097 -9.94216,-5.55508 -17.35383,-8.72325 -0.82664,-0.35334 -1.71989,-4.15748 -2.31902,-4.96104 0.3476,-1.01561 1.47337,0.37118 5.70917,0.4759 2.91753,0.0721 5.42167,-0.98141 6.82548,-1.56301 3.71123,-1.53751 5.12017,-2.16486 5.25588,-6.05982 0.51128,-14.67551 15.90129,-27.1529 31.12326,-25.59371 m -14.85121,51.54359 c 11.07573,5.79535 25.60417,2.99537 32.98467,-8.00061 8.46341,-12.6093 4.75735,-28.98003 -8.38155,-36.4261 -10.38868,-5.88747 -23.62647,-3.45128 -31.45927,5.636 -3.21158,3.72596 -5.08593,7.84918 -5.44802,12.77371 -0.45174,6.14378 -2.7717,8.70538 -8.72545,10.17455 -1.09899,0.27117 -2.19565,0.55198 -3.69683,0.92991 0.91888,0.46633 2.00553,0.8723 2.54679,1.04515 6.55865,3.61905 10.68824,6.36167 18.25606,11.26592 1.18031,0.76488 2.3677,1.58518 3.92356,2.60149 z"
       id="path4-7-2-2-1"
       sodipodi:nodetypes="csssscsssccsssssccscc"
       style="stroke-width:0.506191" /><path
       fill="#000000"
       opacity="1"
       stroke="none"
       d="m 427.58729,370.20727 c -1.02702,2.17077 -2.11307,4.07865 -3.83772,5.57208 -2.74995,2.38125 -5.9638,2.60257 -8.58758,0.13255 -5.08145,-4.7837 -6.83289,-10.81472 -5.43379,-17.58381 0.9165,-4.43415 5.62089,-7.42858 10.27547,-7.07411 4.81878,0.36697 8.60192,3.84423 9.20506,8.43588 0.47386,3.60759 0.0414,7.07229 -1.62144,10.51741 z"
       id="path5-9-3-9-4"
       style="stroke-width:0.443556" /><path
       fill="#000000"
       opacity="1"
       stroke="none"
       d="m 480.88318,347.56438 c 2.47317,-1.98839 4.43342,-0.24917 6.39682,0.62211 1.72937,0.76746 1.11321,2.31517 0.86165,3.75901 -0.37749,2.16653 1.93394,4.17676 4.11216,3.71411 3.02647,-0.64281 6.02106,1.91877 5.94383,5.07959 -0.0315,1.2949 -1.03948,1.84258 -1.8853,2.52507 -2.15032,1.73511 -1.97055,4.51314 0.38037,5.9979 2.57663,1.62732 2.48232,1.59374 0.867,6.13019 -0.78006,2.19088 -2.12851,2.21341 -3.96681,1.82527 -2.30548,-0.48677 -4.28254,1.74488 -3.74594,4.10406 0.67248,2.95652 -2.33588,6.24855 -5.42008,5.95011 -0.96885,-0.0937 -1.40394,-0.82197 -1.91419,-1.48723 -2.12588,-2.77155 -4.79241,-2.636 -6.41411,0.40119 -0.77562,1.45262 -1.83408,1.88854 -3.32758,1.43275 -0.88364,-0.26971 -1.74779,-0.60255 -2.62531,-0.89323 -1.7383,-0.57575 -2.30237,-1.71751 -1.91769,-3.52855 0.60202,-2.83408 -1.57961,-5.06178 -4.21893,-4.19338 -2.18664,0.71944 -3.43314,0.24583 -4.36516,-1.90739 -1.71231,-3.95572 -1.78846,-4.00164 0.76471,-5.97081 2.11022,-1.6275 1.94636,-4.44313 -0.43134,-5.65153 -1.87655,-0.95371 -2.7363,-2.16625 -1.72942,-4.23315 0.9055,-1.85874 0.60568,-4.76886 4.25628,-3.98221 3.06035,0.65946 4.89361,-1.60771 4.01359,-4.69562 -0.58753,-2.06155 0.0875,-3.23407 1.98608,-3.93478 1.86396,-0.68791 3.64499,-2.48698 5.56859,0.0262 2.39797,3.13301 4.95368,2.73424 6.81078,-1.08975 z"
       id="path6-1-5-0-8"
       style="stroke-width:0.506191" /><ellipse
       style="fill:#ffffff;fill-opacity:0;stroke:#000000;stroke-width:1.81225;stroke-dasharray:none;stroke-opacity:1"
       id="path15-4-4-9-3"
       cx="443.92163"
       cy="405.80054"
       rx="2.4366612"
       ry="2.436661" /><path
       id="path24-1-8-4"
       style="fill:#000000;stroke-width:383.025;stroke-dasharray:none"
       d="m 438.98604,401.37557 a 4.2873641,4.3221714 0 0 1 1.68159,0.35336 4.2873641,4.3221714 0 0 0 -2.46342,3.91152 4.2873641,4.3221714 0 0 0 2.6018,3.96757 4.2873641,4.3221714 0 0 1 -1.81997,0.41218 4.2873641,4.3221714 0 0 1 -3.92891,-2.59391 c -2.20198,0.0271 -9.12523,0.0824 -11.65073,0.65981 -1.79403,0.41019 -4.61267,1.98697 -6.67344,1.98697 -2.36785,0 -4.28731,-1.93506 -4.28731,-4.32212 0,-2.38707 1.91946,-4.32212 4.28731,-4.32212 3.24888,0 4.44894,2.30699 6.88989,2.91189 2.15986,0.53523 8.3857,0.23668 11.26042,0.1252 a 4.2873641,4.3221714 0 0 1 4.10277,-3.09035 z" /><path
       id="ellipse23-1-2-7"
       style="fill:#000000;stroke-width:384.577;stroke-dasharray:none"
       d="m 477.00179,401.46143 a 4.322171,4.3221714 0 0 0 -1.92575,0.46186 c 1.31373,0.7415 2.20199,2.14793 2.20199,3.76407 0,1.68864 -0.97032,3.14744 -2.38206,3.85866 a 4.322171,4.3221714 0 0 0 2.10582,0.56004 4.322171,4.3221714 0 0 0 4.32213,-4.32212 4.322171,4.3221714 0 0 0 -4.32213,-4.32251 z" /><path
       id="path25-6-5-0"
       style="fill:#000000;stroke-width:384.577;stroke-dasharray:none"
       d="m 449.12401,401.43913 a 4.322171,4.3221714 0 0 0 -1.69523,0.35336 4.322171,4.3221714 0 0 1 2.4834,3.91153 4.322171,4.3221714 0 0 1 -2.62289,3.96757 4.322171,4.3221714 0 0 0 1.83472,0.41218 4.322171,4.3221714 0 0 0 3.96081,-2.59391 c 2.21988,0.0271 9.19931,0.0824 11.74532,0.6598 1.80859,0.4102 4.65011,1.98697 6.7276,1.98697 2.38706,0 4.32213,-1.93506 4.32213,-4.32212 0,-2.38706 -1.93507,-4.32211 -4.32213,-4.32211 -3.27527,0 -4.48504,2.30699 -6.94584,2.91188 -2.1774,0.53524 -8.45374,0.23668 -11.35179,0.1252 a 4.322171,4.3221714 0 0 0 -4.1361,-3.09035 z" /><path
       id="path26-1-4-3"
       style="fill:#000000;stroke-width:414.018;stroke-dasharray:none"
       d="m 411.1016,410.43692 a 4.6530169,4.6530173 0 0 0 2.07316,-0.49722 c -1.41429,-0.79825 -2.37055,-2.31235 -2.37055,-4.05219 0,-1.8179 1.04461,-3.38837 2.56439,-4.15403 a 4.6530169,4.6530173 0 0 0 -2.267,-0.60291 4.6530169,4.6530173 0 0 0 -4.65296,4.65296 4.6530169,4.6530173 0 0 0 4.65296,4.65339 z" /><path
       id="path1-5-4-6-3-9"
       style="stroke-width:0.345241"
       d="m 616.76903,396.81697 c -1.36488,0.36774 -3.22629,0.9752 -4.85399,1.09968 -0.074,0.91921 -0.21776,1.59877 -0.21961,2.17919 -0.007,2.13502 -0.32505,2.41866 -2.78641,2.41898 -0.16278,3e-5 -0.32557,-3e-5 -0.48835,0 v 3.7424 c 1.39213,0.005 2.78507,0.0264 4.17444,-0.0233 2.27951,-0.0816 4.06271,-1.36366 4.10156,-3.24735 0.0319,-1.54372 0.0724,-6.16965 0.0724,-6.16965 z m -86.22266,2.29444 c -0.60206,0.56774 -3.15846,0.95136 -3.15846,0.95136 0,0 0.0724,1.52693 0.076,2.08773 0.0177,2.75532 1.61131,4.06554 4.85963,4.09794 1.17243,0.0117 2.34511,0.009 3.51762,0.0113 v -3.74498 c -0.16089,-3e-5 -0.32177,2e-5 -0.48266,0 -2.43337,-3.1e-4 -2.79952,-0.80045 -2.83082,-2.64119 0,0 -1.47048,-0.24285 -1.98129,-0.76223 z"
       sodipodi:nodetypes="scscssccsscsscssccsc" /><path
       fill="#000000"
       opacity="1"
       stroke="none"
       d="m 547.69689,377.37346 c 0.33354,-0.0208 0.48015,-0.0344 0.62698,-0.0448 1.76668,-0.12452 3.36798,-2.60207 4.48724,-1.88502 4.74717,3.0412 10.7825,3.24761 15.0609,7.16754 2.01433,1.84555 1.94029,4.38797 2.21919,6.77025 0.23135,1.97585 0.16356,3.98697 0.23174,5.98234 0.0181,0.52804 0.004,1.03596 -0.4664,1.40276 -1.46237,1.14256 -6.02041,0.0376 -6.79284,-1.63921 -0.0509,-0.11044 -0.23191,-0.16032 -0.57981,-0.3857 -0.91823,3.36216 -3.61921,2.3134 -5.86186,2.33038 -6.55244,0.0496 -13.10557,0.0113 -19.6584,0.007 -4.14801,-0.003 -4.14801,-0.003 -6.49574,-2.21454 -1.12504,1.96071 -4.78512,3.0008 -6.92859,2.00955 -0.75493,-0.34912 -0.92685,-0.97474 -0.80956,-1.64205 0.47576,-2.70669 0.2479,-5.45394 0.53815,-8.18199 0.2934,-2.7577 1.63158,-4.48674 3.79536,-5.85006 2.84031,-1.78961 6.14232,-2.45461 9.14959,-3.81228 2.79158,-1.26029 5.35204,-2.59335 8.27242,-0.21659 0.64328,0.52353 1.99781,0.16401 3.21163,0.20247 z"
       id="path3-2-4-6-2-9"
       style="stroke-width:0.443556" /><path
       fill="#000000"
       opacity="1"
       stroke="none"
       d="m 607.58183,336.59709 c 18.12597,1.90651 29.05241,18.34487 26.24923,34.14322 -3.63059,20.4614 -26.98203,30.88824 -44.46531,19.88789 -3.73249,-2.34848 -6.36004,-5.05297 -11.02485,-7.60618 -7.0724,-3.87097 -9.94216,-5.55508 -17.35384,-8.72325 -0.82663,-0.35334 -1.71989,-4.15748 -2.31901,-4.96104 0.3476,-1.01561 1.47336,0.37118 5.70916,0.4759 2.91754,0.0721 5.42168,-0.98142 6.82549,-1.56301 3.71123,-1.53751 5.12017,-2.16486 5.25587,-6.05982 0.51129,-14.67551 15.9013,-27.1529 31.12326,-25.59371 m -14.85121,51.54359 c 11.07573,5.79535 25.60418,2.99537 32.98468,-8.00061 8.4634,-12.6093 4.75735,-28.98004 -8.38156,-36.4261 -10.38868,-5.88747 -23.62646,-3.45128 -31.45926,5.636 -3.21158,3.72596 -5.08593,7.84918 -5.44802,12.77371 -0.45174,6.14378 -2.77171,8.70538 -8.72545,10.17454 -1.09899,0.27118 -2.19565,0.55199 -3.69683,0.92992 0.91887,0.46633 2.00553,0.8723 2.54678,1.04515 6.55866,3.61905 10.68825,6.36167 18.25606,11.26591 1.18032,0.76489 2.3677,1.58519 3.92356,2.6015 z"
       id="path4-7-2-2-1-3"
       sodipodi:nodetypes="csssscsssccsssssccscc"
       style="stroke-width:0.506191" /><path
       fill="#000000"
       opacity="1"
       stroke="none"
       d="m 555.39286,367.8734 c -1.02702,2.17078 -2.11307,4.07865 -3.8377,5.57209 -2.74993,2.38124 -5.9638,2.60257 -8.58759,0.13255 -5.08145,-4.7837 -6.83286,-10.81472 -5.4338,-17.58382 0.9165,-4.43414 5.6209,-7.42857 10.27549,-7.0741 4.8188,0.36697 8.60191,3.84423 9.20505,8.43588 0.47385,3.60759 0.0414,7.07229 -1.62145,10.5174 z"
       id="path5-9-3-9-4-1"
       style="stroke-width:0.443556" /><path
       fill="#000000"
       opacity="1"
       stroke="none"
       d="m 608.68875,345.23052 c 2.47318,-1.98839 4.43343,-0.24917 6.39682,0.6221 1.72938,0.76746 1.11322,2.31518 0.86165,3.75902 -0.37748,2.16653 1.93394,4.17676 4.11217,3.71411 3.02646,-0.64281 6.02106,1.91877 5.94383,5.07959 -0.0315,1.2949 -1.03948,1.84258 -1.8853,2.52507 -2.15033,1.73511 -1.97056,4.51314 0.38037,5.9979 2.57662,1.62732 2.48232,1.59374 0.86699,6.13018 -0.78006,2.19089 -2.1285,2.21342 -3.9668,1.82528 -2.30548,-0.48677 -4.28254,1.74488 -3.74594,4.10406 0.67247,2.95652 -2.33588,6.24855 -5.42008,5.95011 -0.96885,-0.0937 -1.40394,-0.82197 -1.9142,-1.48723 -2.12587,-2.77155 -4.7924,-2.63601 -6.41411,0.40119 -0.77562,1.45261 -1.83407,1.88854 -3.32758,1.43275 -0.88364,-0.26972 -1.74779,-0.60255 -2.6253,-0.89324 -1.73831,-0.57574 -2.30237,-1.7175 -1.91769,-3.52854 0.60202,-2.83408 -1.57962,-5.06178 -4.21894,-4.19338 -2.18663,0.71944 -3.43314,0.24583 -4.36516,-1.90739 -1.7123,-3.95572 -1.78845,-4.00164 0.76471,-5.97081 2.11023,-1.6275 1.94637,-4.44313 -0.43134,-5.65153 -1.87655,-0.95371 -2.7363,-2.16625 -1.72942,-4.23315 0.9055,-1.85874 0.60568,-4.76886 4.25628,-3.98221 3.06036,0.65946 4.89361,-1.60771 4.0136,-4.69562 -0.58753,-2.06156 0.0875,-3.23407 1.98607,-3.93478 1.86396,-0.68792 3.645,-2.48698 5.56859,0.0262 2.39797,3.133 4.95368,2.73424 6.81078,-1.08975 z"
       id="path6-1-5-0-8-8"
       style="stroke-width:0.506191" /><ellipse
       style="fill:#ffffff;fill-opacity:0;stroke:#000000;stroke-width:1.81225;stroke-dasharray:none;stroke-opacity:1"
       id="path15-4-4-9-3-6"
       cx="571.72723"
       cy="403.46667"
       rx="2.4366612"
       ry="2.436661" /><path
       id="path24-1-8-4-3"
       style="fill:#000000;stroke-width:383.025;stroke-dasharray:none"
       d="m 566.79161,399.0417 a 4.2873641,4.3221714 0 0 1 1.6816,0.35337 4.2873641,4.3221714 0 0 0 -2.46343,3.91152 4.2873641,4.3221714 0 0 0 2.60181,3.96757 4.2873641,4.3221714 0 0 1 -1.81998,0.41218 4.2873641,4.3221714 0 0 1 -3.9289,-2.59391 c -2.20199,0.0271 -9.12523,0.0824 -11.65071,0.65981 -1.79406,0.41019 -4.61268,1.98697 -6.67344,1.98697 -2.36787,0 -4.28733,-1.93506 -4.28733,-4.32212 0,-2.38707 1.91946,-4.32212 4.28733,-4.32212 3.24888,0 4.44894,2.30699 6.88986,2.91188 2.15986,0.53524 8.3857,0.23669 11.26042,0.12521 a 4.2873641,4.3221714 0 0 1 4.10277,-3.09036 z" /><path
       id="ellipse23-1-2-7-4"
       style="fill:#000000;stroke-width:384.577;stroke-dasharray:none"
       d="m 604.80737,399.12757 a 4.322171,4.3221714 0 0 0 -1.92575,0.46186 c 1.31373,0.7415 2.20198,2.14793 2.20198,3.76407 0,1.68864 -0.97031,3.14744 -2.38206,3.85866 a 4.322171,4.3221714 0 0 0 2.10583,0.56004 4.322171,4.3221714 0 0 0 4.32213,-4.32212 4.322171,4.3221714 0 0 0 -4.32213,-4.32251 z" /><path
       id="path25-6-5-0-6"
       style="fill:#000000;stroke-width:384.577;stroke-dasharray:none"
       d="m 576.92958,399.10527 a 4.322171,4.3221714 0 0 0 -1.69522,0.35336 4.322171,4.3221714 0 0 1 2.48339,3.91152 4.322171,4.3221714 0 0 1 -2.62289,3.96758 4.322171,4.3221714 0 0 0 1.83472,0.41217 4.322171,4.3221714 0 0 0 3.96082,-2.5939 c 2.21988,0.0271 9.19931,0.0824 11.74531,0.6598 1.80859,0.41019 4.65011,1.98697 6.72761,1.98697 2.38706,0 4.32212,-1.93506 4.32212,-4.32212 0,-2.38707 -1.93506,-4.32212 -4.32212,-4.32212 -3.27528,0 -4.48504,2.307 -6.94584,2.91189 -2.17741,0.53523 -8.45375,0.23668 -11.35179,0.1252 a 4.322171,4.3221714 0 0 0 -4.13611,-3.09035 z" /><path
       id="path26-1-4-3-0"
       style="fill:#000000;stroke-width:414.018;stroke-dasharray:none"
       d="m 538.90719,408.10305 a 4.6530169,4.6530173 0 0 0 2.07318,-0.49721 c -1.41429,-0.79825 -2.37059,-2.31235 -2.37059,-4.05219 0,-1.8179 1.04461,-3.38837 2.56442,-4.15403 a 4.6530169,4.6530173 0 0 0 -2.26701,-0.60291 4.6530169,4.6530173 0 0 0 -4.65296,4.65296 4.6530169,4.6530173 0 0 0 4.65296,4.65338 z" /><path
       id="path1-5-4-6-3-9-4"
       style="stroke-width:0.345241"
       d="m 748.38741,397.69562 c -1.36488,0.36774 -3.22629,0.9752 -4.85399,1.09968 -0.074,0.91921 -0.21776,1.59877 -0.21961,2.17919 -0.007,2.13502 -0.32505,2.41866 -2.78641,2.41898 -0.16278,3e-5 -0.32557,-3e-5 -0.48835,0 v 3.7424 c 1.39213,0.005 2.78507,0.0264 4.17444,-0.0233 2.27951,-0.0816 4.06271,-1.36366 4.10156,-3.24735 0.0319,-1.54372 0.0724,-6.16965 0.0724,-6.16965 z m -86.22266,2.29444 c -0.60206,0.56774 -3.15846,0.95136 -3.15846,0.95136 0,0 0.0724,1.52693 0.076,2.08773 0.0177,2.75532 1.61131,4.06554 4.85963,4.09794 1.17243,0.0117 2.34511,0.009 3.51762,0.0113 v -3.74498 c -0.16089,-3e-5 -0.32177,2e-5 -0.48266,0 -2.43337,-3.1e-4 -2.79952,-0.80045 -2.83082,-2.64119 0,0 -1.47048,-0.24285 -1.98129,-0.76223 z"
       sodipodi:nodetypes="scscssccsscsscssccsc" /><path
       fill="#000000"
       opacity="1"
       stroke="none"
       d="m 680.73162,379.48313 c 0.28537,-0.0178 0.4108,-0.0294 0.53643,-0.0383 1.51152,-0.10654 2.88156,-2.22627 3.83917,-1.61278 4.06155,2.60198 9.22523,2.77858 12.88572,6.13237 1.72341,1.57901 1.66006,3.75424 1.89868,5.79245 0.19794,1.69049 0.13994,3.41115 0.19827,5.11834 0.0155,0.45178 0.003,0.88634 -0.39904,1.20017 -1.25116,0.97754 -5.15091,0.0322 -5.81178,-1.40247 -0.0435,-0.0945 -0.19841,-0.13716 -0.49607,-0.32999 -0.78561,2.87658 -3.0965,1.97928 -5.01526,1.99381 -5.6061,0.0424 -11.21279,0.01 -16.81923,0.006 -3.54893,-0.003 -3.54893,-0.003 -5.55759,-1.8947 -0.96255,1.67753 -4.09402,2.5674 -5.92792,1.71932 -0.6459,-0.2987 -0.79299,-0.83397 -0.69264,-1.4049 0.40705,-2.31578 0.2121,-4.66625 0.46043,-7.0003 0.25102,-2.35942 1.39594,-3.83874 3.24721,-5.00517 2.4301,-1.53114 5.25521,-2.1001 7.82816,-3.26169 2.3884,-1.07827 4.57907,-2.2188 7.07767,-0.18531 0.55037,0.44792 1.70928,0.14033 2.74779,0.17323 z"
       id="path3-2-4-6-2-9-4"
       style="stroke-width:0.379495" /><path
       fill="#000000"
       opacity="1"
       stroke="none"
       d="m 725.52071,349.72053 c 13.46084,1.41582 21.57512,13.6234 19.4934,25.35569 -2.69617,15.1952 -20.0376,22.93846 -33.02116,14.7693 -2.77185,-1.74405 -4.72314,-3.75248 -8.18736,-5.64856 -5.25216,-2.87469 -7.38332,-4.12536 -12.88744,-6.47813 -0.61388,-0.2624 -1.27724,-3.08746 -1.72216,-3.6842 0.25814,-0.75422 1.09416,0.27565 4.23978,0.35341 2.16665,0.0535 4.02629,-0.72882 5.0688,-1.16073 2.75606,-1.1418 3.80238,-1.60768 3.90315,-4.50019 0.3797,-10.89844 11.80874,-20.16449 23.11299,-19.00659 m -11.02892,38.27769 c 8.22515,4.30378 19.01437,2.22444 24.49533,-5.94148 6.28516,-9.36401 3.53294,-21.52137 -6.22437,-27.05102 -7.71492,-4.3722 -17.54566,-2.56302 -23.36252,4.18545 -2.385,2.767 -3.77695,5.82901 -4.04584,9.48611 -0.33548,4.56254 -2.05835,6.46485 -6.47976,7.55589 -0.81614,0.20139 -1.63055,0.40992 -2.74537,0.69058 0.68238,0.34631 1.48936,0.6478 1.89131,0.77616 4.87064,2.68761 7.93739,4.72435 13.55745,8.36638 0.87654,0.56802 1.75832,1.1772 2.91374,1.93194 z"
       id="path4-7-2-2-1-3-5"
       sodipodi:nodetypes="csssscsssccsssssccscc"
       style="stroke-width:0.375911" /><path
       fill="#000000"
       opacity="1"
       stroke="none"
       d="m 687.3161,371.35512 c -0.8787,1.85726 -1.80789,3.48959 -3.28344,4.76734 -2.35277,2.03733 -5.10248,2.22669 -7.34733,0.1134 -4.34756,-4.09281 -5.84602,-9.2528 -4.64902,-15.04427 0.78414,-3.79373 4.8091,-6.35569 8.79145,-6.05242 4.12284,0.31397 7.35958,3.28903 7.87561,7.21753 0.40541,3.08656 0.0354,6.05087 -1.38727,8.99842 z"
       id="path5-9-3-9-4-1-8"
       style="stroke-width:0.379495" /><path
       fill="#000000"
       opacity="1"
       stroke="none"
       d="m 726.34274,356.13195 c 1.83665,-1.47663 3.29239,-0.18504 4.75045,0.46199 1.28429,0.56994 0.82671,1.71932 0.63989,2.79155 -0.28033,1.60893 1.4362,3.10178 3.05381,2.7582 2.24753,-0.47737 4.47141,1.42493 4.41405,3.77224 -0.0234,0.96163 -0.77194,1.36836 -1.40007,1.87519 -1.5969,1.28854 -1.4634,3.35158 0.28247,4.45421 1.91347,1.20849 1.84344,1.18355 0.64385,4.55244 -0.57929,1.62701 -1.58068,1.64374 -2.94585,1.3555 -1.71212,-0.36149 -3.18034,1.2958 -2.78184,3.04779 0.49939,2.19559 -1.73469,4.64034 -4.0251,4.41871 -0.7195,-0.0696 -1.04261,-0.61041 -1.42154,-1.10445 -1.57873,-2.05823 -3.55897,-1.95758 -4.7633,0.29793 -0.57599,1.07875 -1.36203,1.40248 -2.47115,1.064 -0.65621,-0.2003 -1.29796,-0.44747 -1.94962,-0.66334 -1.29092,-0.42756 -1.7098,-1.27547 -1.42413,-2.6204 0.44708,-2.10466 -1.17307,-3.75901 -3.1331,-3.11411 -1.62385,0.53427 -2.54954,0.18256 -3.24169,-1.41649 -1.2716,-2.93762 -1.32815,-2.97172 0.5679,-4.43408 1.56711,-1.20863 1.44543,-3.29959 -0.32033,-4.19698 -1.39357,-0.70826 -2.03205,-1.60872 -1.28431,-3.14366 0.67245,-1.38035 0.44979,-3.54149 3.16083,-2.9573 2.27271,0.48974 3.63413,-1.19393 2.98061,-3.48709 -0.43632,-1.53098 0.065,-2.40171 1.47491,-2.92208 1.38423,-0.51087 2.70688,-1.8469 4.13539,0.0195 1.7808,2.32665 3.67874,2.03052 5.05787,-0.80928 z"
       id="path6-1-5-0-8-8-4"
       style="stroke-width:0.375911" /><ellipse
       style="fill:#ffffff;fill-opacity:0;stroke:#000000;stroke-width:1.81225;stroke-dasharray:none;stroke-opacity:1"
       id="path15-4-4-9-3-6-3"
       cx="703.34558"
       cy="404.34531"
       rx="2.4366612"
       ry="2.436661" /><path
       id="path24-1-8-4-3-0"
       style="fill:#000000;stroke-width:383.025;stroke-dasharray:none"
       d="m 698.40999,399.92035 a 4.2873641,4.3221714 0 0 1 1.6816,0.35337 4.2873641,4.3221714 0 0 0 -2.46343,3.91152 4.2873641,4.3221714 0 0 0 2.60181,3.96757 4.2873641,4.3221714 0 0 1 -1.81998,0.41218 4.2873641,4.3221714 0 0 1 -3.9289,-2.59391 c -2.20199,0.0271 -9.12523,0.0824 -11.65071,0.65981 -1.79406,0.41019 -4.61268,1.98697 -6.67344,1.98697 -2.36787,0 -4.28733,-1.93506 -4.28733,-4.32212 0,-2.38707 1.91946,-4.32212 4.28733,-4.32212 3.24888,0 4.44894,2.30699 6.88986,2.91188 2.15986,0.53524 8.3857,0.23669 11.26042,0.12521 a 4.2873641,4.3221714 0 0 1 4.10277,-3.09036 z" /><path
       id="ellipse23-1-2-7-4-1"
       style="fill:#000000;stroke-width:384.577;stroke-dasharray:none"
       d="M 736.42575,400.00622 A 4.322171,4.3221714 0 0 0 734.5,400.46808 c 1.31373,0.7415 2.20198,2.14793 2.20198,3.76407 0,1.68864 -0.97031,3.14744 -2.38206,3.85866 a 4.322171,4.3221714 0 0 0 2.10583,0.56004 4.322171,4.3221714 0 0 0 4.32213,-4.32212 4.322171,4.3221714 0 0 0 -4.32213,-4.32251 z" /><path
       id="path25-6-5-0-6-1"
       style="fill:#000000;stroke-width:384.577;stroke-dasharray:none"
       d="m 708.54796,399.98392 a 4.322171,4.3221714 0 0 0 -1.69522,0.35336 4.322171,4.3221714 0 0 1 2.48339,3.91152 4.322171,4.3221714 0 0 1 -2.62289,3.96758 4.322171,4.3221714 0 0 0 1.83472,0.41217 4.322171,4.3221714 0 0 0 3.96082,-2.5939 c 2.21988,0.0271 9.19931,0.0824 11.74531,0.6598 1.80859,0.41019 4.65011,1.98697 6.72761,1.98697 2.38706,0 4.32212,-1.93506 4.32212,-4.32212 0,-2.38707 -1.93506,-4.32212 -4.32212,-4.32212 -3.27528,0 -4.48504,2.307 -6.94584,2.91189 -2.17741,0.53523 -8.45375,0.23668 -11.35179,0.1252 a 4.322171,4.3221714 0 0 0 -4.13611,-3.09035 z" /><path
       id="path26-1-4-3-0-4"
       style="fill:#000000;stroke-width:414.018;stroke-dasharray:none"
       d="m 670.52557,408.9817 a 4.6530169,4.6530173 0 0 0 2.07318,-0.49721 c -1.41429,-0.79825 -2.37059,-2.31235 -2.37059,-4.05219 0,-1.8179 1.04461,-3.38837 2.56442,-4.15403 a 4.6530169,4.6530173 0 0 0 -2.26701,-0.60291 4.6530169,4.6530173 0 0 0 -4.65296,4.65296 4.6530169,4.6530173 0 0 0 4.65296,4.65338 z" /><path
       id="path24-2"
       style="fill:#000000;stroke-width:450.365;stroke-dasharray:none"
       d="m 611.4334,169.56756 a 5.0411235,5.0820501 0 0 1 1.9772,0.41548 5.0411235,5.0820501 0 0 0 -2.8965,4.59921 5.0411235,5.0820501 0 0 0 3.05922,4.66511 5.0411235,5.0820501 0 0 1 -2.13992,0.48464 5.0411235,5.0820501 0 0 1 -4.61967,-3.04994 c -2.58913,0.0319 -10.72954,0.0969 -13.69904,0.77581 -2.10943,0.48231 -5.42361,2.33629 -7.84669,2.33629 -2.78413,0 -5.04106,-2.27525 -5.04106,-5.08198 0,-2.80674 2.25693,-5.08199 5.04106,-5.08199 3.82007,0 5.23111,2.71258 8.10121,3.42382 2.53959,0.62934 9.85997,0.2783 13.24008,0.14721 a 5.0411235,5.0820501 0 0 1 4.82411,-3.63366 z" /><path
       id="path26-6"
       style="fill:#000000;stroke-width:486.806;stroke-dasharray:none"
       d="m 578.64659,180.22198 a 5.4710615,5.4710617 0 0 0 2.43765,-0.58463 c -1.66294,-0.93859 -2.78732,-2.71888 -2.78732,-4.7646 0,-2.13751 1.22826,-3.98408 3.01523,-4.88435 a 5.4710615,5.4710617 0 0 0 -2.66556,-0.70891 5.4710615,5.4710617 0 0 0 -5.47099,5.47099 5.4710615,5.4710617 0 0 0 5.47099,5.4715 z" /><path
       id="path27"
       style="fill:#000000;stroke-width:486.806;stroke-dasharray:none"
       d="m 571.70503,180.22198 a 5.4710615,5.4710617 0 0 0 2.43764,-0.58463 c -1.66294,-0.93859 -2.78732,-2.71888 -2.78732,-4.7646 0,-2.13751 1.22826,-3.98408 3.01524,-4.88435 a 5.4710615,5.4710617 0 0 0 -2.66556,-0.70891 5.4710615,5.4710617 0 0 0 -5.471,5.47099 5.4710615,5.4710617 0 0 0 5.471,5.4715 z" /><path
       id="path28"
       style="fill:#000000;stroke-width:486.806;stroke-dasharray:none"
       d="m 565.25928,180.22198 a 5.4710615,5.4710617 0 0 0 2.43765,-0.58463 c -1.66294,-0.93859 -2.78732,-2.71888 -2.78732,-4.7646 0,-2.13751 1.22826,-3.98408 3.01523,-4.88435 a 5.4710615,5.4710617 0 0 0 -2.66556,-0.70891 5.4710615,5.4710617 0 0 0 -5.47099,5.47099 5.4710615,5.4710617 0 0 0 5.47099,5.4715 z" /><path
       id="path24-2-7"
       style="fill:#000000;stroke-width:450.365;stroke-dasharray:none"
       d="m 497.73377,270.89352 a 5.0820499,5.0411233 64.127322 0 1 1.96032,-0.48896 5.0820499,5.0411233 64.127322 0 0 -0.5992,5.40216 5.0820499,5.0411233 64.127322 0 0 4.78829,2.86256 5.0820499,5.0411233 64.127322 0 1 -1.71392,1.36986 5.0820499,5.0411233 64.127322 0 1 -5.48753,-0.72834 c -2.31569,1.15853 -9.61181,4.76923 -11.98739,6.67593 -1.68754,1.35446 -3.86049,4.46884 -6.0407,5.5262 -2.50506,1.21492 -5.52863,0.15258 -6.75341,-2.37282 -1.22478,-2.5254 -0.18693,-5.55746 2.31813,-6.77237 3.43717,-1.66698 5.89047,0.15797 8.78326,-0.45451 2.55966,-0.54195 8.99311,-4.05222 11.97722,-5.64516 a 5.0820499,5.0411233 64.127322 0 1 2.75493,-5.37455 z" /><path
       id="path26-6-4"
       style="fill:#000000;stroke-width:486.806;stroke-dasharray:none"
       d="m 469.46138,292.17032 a 5.4710615,5.4710617 0 0 0 2.43764,-0.58462 c -1.66294,-0.9386 -2.78732,-2.71889 -2.78732,-4.76461 0,-2.13751 1.22826,-3.98408 3.01524,-4.88435 a 5.4710615,5.4710617 0 0 0 -2.66556,-0.70891 5.4710615,5.4710617 0 0 0 -5.471,5.47099 5.4710615,5.4710617 0 0 0 5.471,5.4715 z" /><path
       id="path27-7"
       style="fill:#000000;stroke-width:486.806;stroke-dasharray:none"
       d="m 462.51981,292.17032 a 5.4710615,5.4710617 0 0 0 2.43764,-0.58462 c -1.66294,-0.9386 -2.78732,-2.71889 -2.78732,-4.76461 0,-2.13751 1.22826,-3.98408 3.01524,-4.88435 a 5.4710615,5.4710617 0 0 0 -2.66556,-0.70891 5.4710615,5.4710617 0 0 0 -5.471,5.47099 5.4710615,5.4710617 0 0 0 5.471,5.4715 z" /><path
       id="path28-0"
       style="fill:#000000;stroke-width:486.806;stroke-dasharray:none"
       d="m 456.07406,292.17032 a 5.4710615,5.4710617 0 0 0 2.43765,-0.58462 c -1.66294,-0.9386 -2.78732,-2.71889 -2.78732,-4.76461 0,-2.13751 1.22826,-3.98408 3.01523,-4.88435 a 5.4710615,5.4710617 0 0 0 -2.66556,-0.70891 5.4710615,5.4710617 0 0 0 -5.47099,5.47099 5.4710615,5.4710617 0 0 0 5.47099,5.4715 z" /><path
       id="path24-2-7-3"
       style="fill:#000000;stroke-width:450.365;stroke-dasharray:none"
       d="m 406.521,47.440512 a 5.08205,5.0411233 0.62818168 0 1 0.43714,-1.972542 5.08205,5.0411233 0.62818168 0 0 4.56718,2.946754 5.08205,5.0411233 0.62818168 0 0 4.69836,-3.007874 5.08205,5.0411233 0.62818168 0 1 0.46114,2.145091 5.08205,5.0411233 0.62818168 0 1 -3.10039,4.585944 c 0.003,2.589339 -0.0208,10.729961 0.62558,13.70673 0.45915,2.114595 2.27667,5.448899 2.25011,7.871842 -0.0306,2.783958 -2.3304,5.015801 -5.13695,4.985031 -2.80657,-0.03077 -5.05694,-2.31251 -5.02641,-5.096477 0.0419,-3.819841 2.76977,-5.201054 3.51243,-8.063182 0.65714,-2.532539 0.38637,-9.856317 0.29236,-13.237669 A 5.08205,5.0411233 0.62818168 0 1 406.521,47.440512 Z" /><path
       id="path26-6-4-4"
       style="fill:#000000;stroke-width:486.806;stroke-dasharray:none"
       d="m 404.5427,78.931617 a 5.4710615,5.4710617 0 0 0 2.43765,-0.584627 c -1.66295,-0.938595 -2.78732,-2.718881 -2.78732,-4.764605 0,-2.13751 1.22826,-3.984082 3.01523,-4.884352 a 5.4710615,5.4710617 0 0 0 -2.66556,-0.708903 5.4710615,5.4710617 0 0 0 -5.47099,5.47099 5.4710615,5.4710617 0 0 0 5.47099,5.471497 z" /><path
       id="path27-7-6"
       style="fill:#000000;stroke-width:486.806;stroke-dasharray:none"
       d="m 397.60113,78.931617 a 5.4710615,5.4710617 0 0 0 2.43765,-0.584627 c -1.66295,-0.938595 -2.78732,-2.718881 -2.78732,-4.764605 0,-2.13751 1.22826,-3.984082 3.01523,-4.884352 a 5.4710615,5.4710617 0 0 0 -2.66556,-0.708903 5.4710615,5.4710617 0 0 0 -5.47099,5.47099 5.4710615,5.4710617 0 0 0 5.47099,5.471497 z" /><path
       id="path28-0-7"
       style="fill:#000000;stroke-width:486.806;stroke-dasharray:none"
       d="m 391.15539,78.931617 a 5.4710615,5.4710617 0 0 0 2.43764,-0.584627 c -1.66294,-0.938595 -2.78731,-2.718881 -2.78731,-4.764605 0,-2.13751 1.22825,-3.984082 3.01523,-4.884352 a 5.4710615,5.4710617 0 0 0 -2.66556,-0.708903 5.4710615,5.4710617 0 0 0 -5.47099,5.47099 5.4710615,5.4710617 0 0 0 5.47099,5.471497 z" /><rect
       style="fill:#ffffff;fill-opacity:0;stroke:#000000;stroke-width:2.167;stroke-dasharray:none;stroke-opacity:1"
       id="rect29"
       width="62.177082"
       height="36.777084"
       x="457.72916"
       y="185.47292" /><rect
       style="fill:#ffffff;fill-opacity:0;stroke:#000000;stroke-width:2.30969;stroke-linejoin:bevel;stroke-dasharray:none;stroke-opacity:1"
       id="rect30"
       width="66.939606"
       height="32.757851"
       x="446.11646"
       y="265.46747"
       ry="2.8662856"
       rx="2.9170647" /><ellipse
       style="fill:#000000;stroke-width:402.319;stroke-dasharray:none"
       id="path15-4-0-9"
       cx="1002.3282"
       cy="209.62875"
       rx="4.5215325"
       ry="4.5215316" /><path
       id="path24-2-7-5"
       style="fill:#000000;stroke-width:739.16;stroke-dasharray:none"
       d="m 991.75082,205.41424 a 8.3408987,8.2737281 64.127322 0 1 3.21736,-0.8025 8.3408987,8.2737281 64.127322 0 0 -0.98343,8.86628 8.3408987,8.2737281 64.127322 0 0 7.85875,4.69816 8.3408987,8.2737281 64.127322 0 1 -2.81291,2.24829 8.3408987,8.2737281 64.127322 0 1 -9.00644,-1.1954 c -3.8006,1.90144 -15.77534,7.82749 -19.67426,10.95685 -2.76967,2.223 -6.33601,7.33448 -9.91427,9.06987 -4.11143,1.99398 -9.07385,0.25041 -11.08402,-3.89439 -2.01017,-4.1448 -0.3068,-9.12116 3.80462,-11.11513 5.64125,-2.73593 9.66772,0.25927 14.41551,-0.74596 4.20102,-0.88947 14.7599,-6.6507 19.65757,-9.26511 a 8.3408987,8.2737281 64.127322 0 1 4.52152,-8.82096 z" /><path
       id="path26-6-4-3"
       style="fill:#000000;stroke-width:798.969;stroke-dasharray:none"
       d="m 945.34885,240.33472 a 8.9793628,8.9793632 0 0 0 4.00076,-0.9595 c -2.72929,-1.54048 -4.57468,-4.46237 -4.57468,-7.8199 0,-3.50818 2.01587,-6.53886 4.94875,-8.01642 a 8.9793628,8.9793632 0 0 0 -4.37483,-1.1635 8.9793628,8.9793632 0 0 0 -8.97927,8.97923 8.9793628,8.9793632 0 0 0 8.97927,8.98009 z" /><path
       id="path27-7-0"
       style="fill:#000000;stroke-width:798.969;stroke-dasharray:none"
       d="m 933.95601,240.33472 a 8.9793628,8.9793632 0 0 0 4.00077,-0.9595 c -2.72929,-1.54048 -4.57468,-4.46237 -4.57468,-7.8199 0,-3.50818 2.01588,-6.53886 4.94876,-8.01642 a 8.9793628,8.9793632 0 0 0 -4.37485,-1.1635 8.9793628,8.9793632 0 0 0 -8.97926,8.97923 8.9793628,8.9793632 0 0 0 8.97926,8.98009 z" /><rect
       style="fill:#ffffff;fill-opacity:0;stroke:#000000;stroke-width:3.59705;stroke-linejoin:bevel;stroke-dasharray:none;stroke-opacity:1"
       id="rect30-1"
       width="98.56678"
       height="53.957451"
       x="918.42847"
       y="196.41188"
       ry="4.7212338"
       rx="4.2953" /><path
       id="path1-5-4-6-1"
       style="stroke-width:0.40284"
       d="m 815.45144,187.85743 c -2.55781,8.7e-4 -5.11571,0.0155 -7.67344,0.0155 -10.85472,0 -21.7097,-0.009 -32.56442,0.003 -5.10688,0.006 -6.61269,1.75571 -6.61096,7.583 0.003,9.66621 0.004,20.92051 0.006,30.77609 l 5.02917,-2.02463 c 3.6e-4,-9.54788 0.0393,-18.64129 0.0444,-28.18922 10e-4,-2.71397 0.22856,-2.97414 2.5647,-2.97501 5.17779,-0.002 10.35564,0.0283 15.53342,0.0279 9.8014,-8.6e-4 19.28433,-0.0374 28.78894,-0.0486 l 5.20589,-4.89583 c -0.93452,-0.005 -9.3888,-0.27263 -10.3234,-0.27233 z m 37.61935,53.40313 c -0.074,1.25152 -0.21771,2.17632 -0.21957,2.96656 -0.007,2.90685 -0.32503,3.29291 -2.78639,3.29334 -0.16278,4e-5 -0.32556,-4e-5 -0.48834,0 v 5.09529 c 1.3921,0.007 2.78506,0.0361 4.17442,-0.0315 2.27952,-0.11105 4.0627,-1.85677 4.10156,-4.42143 0.0318,-2.1018 0.0723,-8.39965 0.0723,-8.39965 -1.36489,0.50068 -3.22626,1.32793 -4.85397,1.4974 z m -84.52709,2.92181 c 0,0 0.0724,2.07845 0.076,2.84199 0.0178,3.75139 1.61133,5.53591 4.85965,5.58002 1.1724,0.0159 2.34508,0.0124 3.51761,0.015 v -5.09891 c -0.16088,-4e-5 -0.32177,3e-5 -0.48265,0 -2.43341,-4.2e-4 -2.79954,-1.08956 -2.83084,-3.59574 0,0 -1.47026,-0.33067 -1.98106,-1.03781 -0.60206,0.77299 -3.1587,1.29545 -3.1587,1.29545 z"
       sodipodi:nodetypes="scscccccsccsscsccsscccscccccccs" /><path
       fill="#000000"
       opacity="1"
       stroke="none"
       d="m 788.85278,223.73545 c 0.33351,-0.0208 0.48013,-0.0344 0.62696,-0.0448 1.76668,-0.12451 3.36799,-2.60206 4.48727,-1.88502 4.74718,3.04121 10.78251,3.24762 15.06091,7.16754 2.0143,1.84555 1.94029,4.38797 2.2192,6.77025 0.23134,1.97586 0.16354,3.98698 0.2317,5.98234 0.018,0.52804 0.003,1.03596 -0.46638,1.40276 -1.46237,1.14256 -6.0204,0.0376 -6.79285,-1.63921 -0.0509,-0.11044 -0.2319,-0.16031 -0.5798,-0.3857 -0.91823,3.36217 -3.6192,2.31341 -5.86188,2.33039 -6.55245,0.0496 -13.10555,0.0113 -19.6584,0.007 -4.14799,-0.003 -4.14799,-0.003 -6.49576,-2.21455 -1.125,1.96071 -4.7851,3.00081 -6.92857,2.00955 -0.75492,-0.34912 -0.92684,-0.97474 -0.80955,-1.64205 0.47572,-2.70669 0.24789,-5.45394 0.53814,-8.18199 0.2934,-2.7577 1.63158,-4.48674 3.79535,-5.85006 2.84032,-1.78961 6.14232,-2.45461 9.14959,-3.81227 2.79159,-1.2603 5.35204,-2.59336 8.27244,-0.2166 0.64326,0.52353 1.99781,0.16402 3.21163,0.20247 z"
       id="path3-2-4-6-3"
       style="stroke-width:0.443556" /><path
       fill="#000000"
       opacity="1"
       stroke="none"
       d="m 848.73774,182.95908 c 18.12595,1.90652 29.05239,18.34487 26.24921,34.14323 -3.63059,20.4614 -26.98204,30.88824 -44.46529,19.88788 -3.73252,-2.34847 -6.36007,-5.05297 -11.02487,-7.60618 -7.07238,-3.87097 -9.94216,-5.55507 -17.35384,-8.72325 -0.82661,-0.35334 -1.7199,-4.15747 -2.31899,-4.96104 0.34758,-1.01561 1.47335,0.37118 5.70915,0.4759 2.91753,0.0721 5.42168,-0.98141 6.8255,-1.563 3.71119,-1.53752 5.12014,-2.16486 5.25585,-6.05983 0.5113,-14.6755 15.90132,-27.1529 31.12328,-25.59371 m -14.85124,51.54359 c 11.07574,5.79535 25.60419,2.99537 32.98471,-8.00061 8.46337,-12.6093 4.75731,-28.98003 -8.38159,-36.4261 -10.38868,-5.88747 -23.62643,-3.45128 -31.45924,5.636 -3.21161,3.72596 -5.08592,7.84918 -5.44803,12.77372 -0.45175,6.14377 -2.7717,8.70537 -8.72543,10.17454 -1.09901,0.27117 -2.19567,0.55199 -3.69682,0.92991 0.91885,0.46633 2.00552,0.87231 2.54678,1.04515 6.55862,3.61905 10.68822,6.36168 18.25603,11.26592 1.1803,0.76488 2.3677,1.58518 3.92358,2.6015 z"
       id="path4-7-2-2-7"
       sodipodi:nodetypes="csssscsssccsssssccscc"
       style="stroke-width:0.506191" /><path
       fill="#000000"
       opacity="1"
       stroke="none"
       d="m 796.54875,214.2354 c -1.027,2.17077 -2.11307,4.07865 -3.83771,5.57208 -2.74995,2.38125 -5.9638,2.60257 -8.58758,0.13255 -5.08145,-4.7837 -6.83289,-10.81472 -5.43379,-17.58381 0.9165,-4.43415 5.6209,-7.42858 10.27548,-7.07411 4.81877,0.36698 8.60193,3.84424 9.20504,8.43588 0.47387,3.60759 0.0414,7.07229 -1.62144,10.51741 z"
       id="path5-9-3-9-0"
       style="stroke-width:0.443556" /><path
       fill="#000000"
       opacity="1"
       stroke="none"
       d="m 848.48744,193.44673 c 2.42817,-1.95222 4.3528,-0.24463 6.28045,0.6108 1.69795,0.7535 1.09299,2.27306 0.84599,3.69064 -0.37061,2.12712 1.89875,4.10078 4.03737,3.64655 2.97141,-0.63112 5.91152,1.88388 5.8357,4.9872 -0.0311,1.27134 -1.02057,1.80906 -1.85099,2.47914 -2.11123,1.70355 -1.93473,4.43105 0.37343,5.8888 2.52978,1.59772 2.43718,1.56475 0.85125,6.01869 -0.7659,2.15103 -2.08977,2.17315 -3.89468,1.79207 -2.26352,-0.47792 -4.20461,1.71314 -3.67777,4.02941 0.66024,2.90274 -2.2934,6.1349 -5.3215,5.84188 -0.95124,-0.092 -1.37842,-0.80701 -1.8794,-1.46017 -2.0872,-2.72115 -4.70521,-2.58806 -6.29742,0.39388 -0.76153,1.4262 -1.80074,1.85419 -3.26705,1.40669 -0.86757,-0.2648 -1.71602,-0.59159 -2.57755,-0.87698 -1.70667,-0.56527 -2.26052,-1.68626 -1.88282,-3.46436 0.59107,-2.78253 -1.55087,-4.96972 -4.14218,-4.11711 -2.14686,0.70635 -3.3707,0.24135 -4.28579,-1.8727 -1.68115,-3.88377 -1.7559,-3.92885 0.75083,-5.86221 2.0718,-1.59789 1.91092,-4.36231 -0.42352,-5.54872 -1.84242,-0.93637 -2.68652,-2.12685 -1.69794,-4.15616 0.88902,-1.82493 0.59465,-4.68211 4.17882,-3.90978 3.00471,0.64747 4.80461,-1.57846 3.94063,-4.61021 -0.57685,-2.02405 0.0859,-3.17525 1.94993,-3.86321 1.83005,-0.6754 3.5787,-2.44174 5.46731,0.0257 2.35436,3.07602 4.86355,2.6845 6.68689,-1.06993 z"
       id="path6-1-5-0-4"
       style="stroke-width:0.496984" /><ellipse
       style="fill:#ffffff;fill-opacity:0;stroke:#000000;stroke-width:1.81225;stroke-dasharray:none;stroke-opacity:1"
       id="path15-4-4-9-5"
       cx="812.88312"
       cy="249.82866"
       rx="2.4366612"
       ry="2.436661" /><path
       id="path24-1-8-8"
       style="fill:#000000;stroke-width:383.025;stroke-dasharray:none"
       d="m 807.94752,245.4037 a 4.2873641,4.3221714 0 0 1 1.68157,0.35336 4.2873641,4.3221714 0 0 0 -2.46341,3.91152 4.2873641,4.3221714 0 0 0 2.6018,3.96758 4.2873641,4.3221714 0 0 1 -1.81996,0.41217 4.2873641,4.3221714 0 0 1 -3.92892,-2.5939 c -2.202,0.0271 -9.12524,0.0824 -11.65073,0.6598 -1.79403,0.41019 -4.61266,1.98697 -6.67344,1.98697 -2.36784,0 -4.28731,-1.93506 -4.28731,-4.32212 0,-2.38707 1.91947,-4.32212 4.28731,-4.32212 3.24889,0 4.44894,2.307 6.8899,2.91189 2.15987,0.53523 8.38569,0.23668 11.2604,0.1252 a 4.2873641,4.3221714 0 0 1 4.10279,-3.09035 z" /><path
       id="ellipse23-1-2-4"
       style="fill:#000000;stroke-width:384.577;stroke-dasharray:none"
       d="m 845.96326,245.48956 a 4.322171,4.3221714 0 0 0 -1.92575,0.46186 c 1.31373,0.7415 2.20199,2.14793 2.20199,3.76407 0,1.68864 -0.97033,3.14744 -2.38205,3.85866 a 4.322171,4.3221714 0 0 0 2.10581,0.56004 4.322171,4.3221714 0 0 0 4.32212,-4.32212 4.322171,4.3221714 0 0 0 -4.32212,-4.32251 z" /><path
       id="path25-6-5-8"
       style="fill:#000000;stroke-width:384.577;stroke-dasharray:none"
       d="m 818.08546,245.46726 a 4.322171,4.3221714 0 0 0 -1.69521,0.35336 4.322171,4.3221714 0 0 1 2.4834,3.91153 4.322171,4.3221714 0 0 1 -2.62292,3.96757 4.322171,4.3221714 0 0 0 1.83473,0.41218 4.322171,4.3221714 0 0 0 3.96082,-2.59391 c 2.21988,0.0271 9.19932,0.0824 11.74531,0.6598 1.8086,0.4102 4.65012,1.98697 6.72763,1.98697 2.38707,0 4.32212,-1.93505 4.32212,-4.32212 0,-2.38706 -1.93505,-4.32211 -4.32212,-4.32211 -3.27527,0 -4.48506,2.30699 -6.94584,2.91188 -2.1774,0.53524 -8.45376,0.23668 -11.35181,0.1252 a 4.322171,4.3221714 0 0 0 -4.13611,-3.09035 z" /><path
       id="path26-1-4-6"
       style="fill:#000000;stroke-width:414.018;stroke-dasharray:none"
       d="m 780.06307,254.46505 a 4.6530169,4.6530173 0 0 0 2.07317,-0.49721 c -1.4143,-0.79826 -2.37056,-2.31235 -2.37056,-4.0522 0,-1.8179 1.04461,-3.38837 2.56439,-4.15403 a 4.6530169,4.6530173 0 0 0 -2.267,-0.6029 4.6530169,4.6530173 0 0 0 -4.65296,4.65295 4.6530169,4.6530173 0 0 0 4.65296,4.65339 z" /><path
       id="path1-5-4-6-1-3"
       style="stroke-width:0.40284"
       d="m 832.9276,281.21413 c -2.55781,8.7e-4 -5.11571,0.0155 -7.67344,0.0155 -10.85472,0 -21.7097,-0.009 -32.56442,0.003 -5.10688,0.006 -6.61269,1.75571 -6.61096,7.583 0.003,9.66621 0.004,20.92051 0.006,30.77609 l 5.02917,-2.02463 c 3.6e-4,-9.54788 0.0393,-18.64129 0.0444,-28.18922 10e-4,-2.71397 0.22856,-2.97414 2.5647,-2.97501 5.17779,-0.002 10.35564,0.0283 15.53342,0.0279 9.8014,-8.6e-4 19.28433,-0.0374 28.78894,-0.0486 l 5.20589,-4.89583 c -0.93452,-0.005 -9.3888,-0.27263 -10.3234,-0.27233 z m 37.61935,53.40313 c -0.074,1.25152 -0.21771,2.17632 -0.21957,2.96656 -0.007,2.90685 -0.32503,3.29291 -2.78639,3.29334 -0.16278,4e-5 -0.32556,-4e-5 -0.48834,0 v 5.09529 c 1.3921,0.007 2.78506,0.0361 4.17442,-0.0315 2.27952,-0.11105 4.0627,-1.85677 4.10156,-4.42143 0.0318,-2.1018 0.0723,-8.39965 0.0723,-8.39965 -1.36489,0.50068 -3.22626,1.32793 -4.85397,1.4974 z m -84.52709,2.92181 c 0,0 0.0724,2.07845 0.076,2.84199 0.0178,3.75139 1.61133,5.53591 4.85965,5.58002 1.1724,0.0159 2.34508,0.0124 3.51761,0.015 v -5.09891 c -0.16088,-4e-5 -0.32177,3e-5 -0.48265,0 -2.43341,-4.2e-4 -2.79954,-1.08956 -2.83084,-3.59574 0,0 -1.47026,-0.33067 -1.98106,-1.03781 -0.60206,0.77299 -3.1587,1.29545 -3.1587,1.29545 z"
       sodipodi:nodetypes="scscccccsccsscsccsscccscccccccs" /><path
       fill="#000000"
       opacity="1"
       stroke="none"
       d="m 806.32894,317.09215 c 0.33351,-0.0208 0.48013,-0.0344 0.62696,-0.0448 1.76668,-0.12451 3.36799,-2.60206 4.48727,-1.88502 4.74718,3.04121 10.78251,3.24762 15.06091,7.16754 2.0143,1.84555 1.94029,4.38797 2.2192,6.77025 0.23134,1.97586 0.16354,3.98698 0.2317,5.98234 0.018,0.52804 0.003,1.03596 -0.46638,1.40276 -1.46237,1.14256 -6.0204,0.0376 -6.79285,-1.63921 -0.0509,-0.11044 -0.2319,-0.16031 -0.5798,-0.3857 -0.91823,3.36217 -3.6192,2.31341 -5.86188,2.33039 -6.55245,0.0496 -13.10555,0.0113 -19.6584,0.007 -4.14799,-0.003 -4.14799,-0.003 -6.49576,-2.21455 -1.125,1.96071 -4.7851,3.00081 -6.92857,2.00955 -0.75492,-0.34912 -0.92684,-0.97474 -0.80955,-1.64205 0.47572,-2.70669 0.24789,-5.45394 0.53814,-8.18199 0.2934,-2.7577 1.63158,-4.48674 3.79535,-5.85006 2.84032,-1.78961 6.14232,-2.45461 9.14959,-3.81227 2.79159,-1.2603 5.35204,-2.59336 8.27244,-0.2166 0.64326,0.52353 1.99781,0.16402 3.21163,0.20247 z"
       id="path3-2-4-6-3-7"
       style="stroke-width:0.443556" /><path
       fill="#000000"
       opacity="1"
       stroke="none"
       d="m 866.2139,276.31578 c 18.12595,1.90652 29.05239,18.34487 26.24921,34.14323 -3.63059,20.4614 -26.98204,30.88824 -44.46529,19.88788 -3.73252,-2.34847 -6.36007,-5.05297 -11.02487,-7.60618 -7.07238,-3.87097 -9.94216,-5.55507 -17.35384,-8.72325 -0.82661,-0.35334 -1.7199,-4.15747 -2.31899,-4.96104 0.34758,-1.01561 1.47335,0.37118 5.70915,0.4759 2.91753,0.0721 5.42168,-0.98141 6.8255,-1.563 3.71119,-1.53752 5.12014,-2.16486 5.25585,-6.05983 0.5113,-14.6755 15.90132,-27.1529 31.12328,-25.59371 m -14.85124,51.54359 c 11.07574,5.79535 25.60419,2.99537 32.98471,-8.00061 8.46337,-12.6093 4.75731,-28.98003 -8.38159,-36.4261 -10.38868,-5.88747 -23.62643,-3.45128 -31.45924,5.636 -3.21161,3.72596 -5.08592,7.84918 -5.44803,12.77372 -0.45175,6.14377 -2.7717,8.70537 -8.72543,10.17454 -1.09901,0.27117 -2.19567,0.55199 -3.69682,0.92991 0.91885,0.46633 2.00552,0.87231 2.54678,1.04515 6.55862,3.61905 10.68822,6.36168 18.25603,11.26592 1.1803,0.76488 2.3677,1.58518 3.92358,2.6015 z"
       id="path4-7-2-2-7-6"
       sodipodi:nodetypes="csssscsssccsssssccscc"
       style="stroke-width:0.506191" /><path
       fill="#000000"
       opacity="1"
       stroke="none"
       d="m 814.02491,307.5921 c -1.027,2.17077 -2.11307,4.07865 -3.83771,5.57208 -2.74995,2.38125 -5.9638,2.60257 -8.58758,0.13255 -5.08145,-4.7837 -6.83289,-10.81472 -5.43379,-17.58381 0.9165,-4.43415 5.6209,-7.42858 10.27548,-7.07411 4.81877,0.36698 8.60193,3.84424 9.20504,8.43588 0.47387,3.60759 0.0414,7.07229 -1.62144,10.51741 z"
       id="path5-9-3-9-0-6"
       style="stroke-width:0.443556" /><path
       fill="#000000"
       opacity="1"
       stroke="none"
       d="m 865.9636,286.80343 c 2.42817,-1.95222 4.3528,-0.24463 6.28045,0.6108 1.69795,0.7535 1.09299,2.27306 0.84599,3.69064 -0.37061,2.12712 1.89875,4.10078 4.03737,3.64655 2.97141,-0.63112 5.91152,1.88388 5.8357,4.9872 -0.0311,1.27134 -1.02057,1.80906 -1.85099,2.47914 -2.11123,1.70355 -1.93473,4.43105 0.37343,5.8888 2.52978,1.59772 2.43718,1.56475 0.85125,6.01869 -0.7659,2.15103 -2.08977,2.17315 -3.89468,1.79207 -2.26352,-0.47792 -4.20461,1.71314 -3.67777,4.02941 0.66024,2.90274 -2.2934,6.1349 -5.3215,5.84188 -0.95124,-0.092 -1.37842,-0.80701 -1.8794,-1.46017 -2.0872,-2.72115 -4.70521,-2.58806 -6.29742,0.39388 -0.76153,1.4262 -1.80074,1.85419 -3.26705,1.40669 -0.86757,-0.2648 -1.71602,-0.59159 -2.57755,-0.87698 -1.70667,-0.56527 -2.26052,-1.68626 -1.88282,-3.46436 0.59107,-2.78253 -1.55087,-4.96972 -4.14218,-4.11711 -2.14686,0.70635 -3.3707,0.24135 -4.28579,-1.8727 -1.68115,-3.88377 -1.7559,-3.92885 0.75083,-5.86221 2.0718,-1.59789 1.91092,-4.36231 -0.42352,-5.54872 -1.84242,-0.93637 -2.68652,-2.12685 -1.69794,-4.15616 0.88902,-1.82493 0.59465,-4.68211 4.17882,-3.90978 3.00471,0.64747 4.80461,-1.57846 3.94063,-4.61021 -0.57685,-2.02405 0.0859,-3.17525 1.94993,-3.86321 1.83005,-0.6754 3.5787,-2.44174 5.46731,0.0257 2.35436,3.07602 4.86355,2.6845 6.68689,-1.06993 z"
       id="path6-1-5-0-4-7"
       style="stroke-width:0.496984" /><ellipse
       style="fill:#ffffff;fill-opacity:0;stroke:#000000;stroke-width:1.81225;stroke-dasharray:none;stroke-opacity:1"
       id="path15-4-4-9-5-8"
       cx="830.35931"
       cy="343.18536"
       rx="2.4366612"
       ry="2.436661" /><path
       id="path24-1-8-8-1"
       style="fill:#000000;stroke-width:383.025;stroke-dasharray:none"
       d="m 825.42368,338.7604 a 4.2873641,4.3221714 0 0 1 1.68157,0.35336 4.2873641,4.3221714 0 0 0 -2.46341,3.91152 4.2873641,4.3221714 0 0 0 2.6018,3.96758 4.2873641,4.3221714 0 0 1 -1.81996,0.41217 4.2873641,4.3221714 0 0 1 -3.92892,-2.5939 c -2.202,0.0271 -9.12524,0.0824 -11.65073,0.6598 -1.79403,0.41019 -4.61266,1.98697 -6.67344,1.98697 -2.36784,0 -4.28731,-1.93506 -4.28731,-4.32212 0,-2.38707 1.91947,-4.32212 4.28731,-4.32212 3.24889,0 4.44894,2.307 6.8899,2.91189 2.15987,0.53523 8.38569,0.23668 11.2604,0.1252 a 4.2873641,4.3221714 0 0 1 4.10279,-3.09035 z" /><path
       id="ellipse23-1-2-4-1"
       style="fill:#000000;stroke-width:384.577;stroke-dasharray:none"
       d="m 863.43942,338.84626 a 4.322171,4.3221714 0 0 0 -1.92575,0.46186 c 1.31373,0.7415 2.20199,2.14793 2.20199,3.76407 0,1.68864 -0.97033,3.14744 -2.38205,3.85866 a 4.322171,4.3221714 0 0 0 2.10581,0.56004 4.322171,4.3221714 0 0 0 4.32212,-4.32212 4.322171,4.3221714 0 0 0 -4.32212,-4.32251 z" /><path
       id="path25-6-5-8-8"
       style="fill:#000000;stroke-width:384.577;stroke-dasharray:none"
       d="m 835.56162,338.82396 a 4.322171,4.3221714 0 0 0 -1.69521,0.35336 4.322171,4.3221714 0 0 1 2.4834,3.91153 4.322171,4.3221714 0 0 1 -2.62292,3.96757 4.322171,4.3221714 0 0 0 1.83473,0.41218 4.322171,4.3221714 0 0 0 3.96082,-2.59391 c 2.21988,0.0271 9.19932,0.0824 11.74531,0.6598 1.8086,0.4102 4.65012,1.98697 6.72763,1.98697 2.38707,0 4.32212,-1.93505 4.32212,-4.32212 0,-2.38706 -1.93505,-4.32211 -4.32212,-4.32211 -3.27527,0 -4.48506,2.30699 -6.94584,2.91188 -2.1774,0.53524 -8.45376,0.23668 -11.35181,0.1252 a 4.322171,4.3221714 0 0 0 -4.13611,-3.09035 z" /><path
       id="path26-1-4-6-0"
       style="fill:#000000;stroke-width:414.018;stroke-dasharray:none"
       d="m 797.53923,347.82175 a 4.6530169,4.6530173 0 0 0 2.07317,-0.49721 c -1.4143,-0.79826 -2.37056,-2.31235 -2.37056,-4.0522 0,-1.8179 1.04461,-3.38837 2.56439,-4.15403 a 4.6530169,4.6530173 0 0 0 -2.267,-0.6029 4.6530169,4.6530173 0 0 0 -4.65296,4.65295 4.6530169,4.6530173 0 0 0 4.65296,4.65339 z" /></g></svg>
